<svg width="414" height="514" viewBox="0 0 414 514" fill="none" xmlns="http://www.w3.org/2000/svg">
<g filter="url(#filter0_f_177_66)">
<rect x="7" y="7" width="400" height="500" fill="#D9D9D9"/>
</g>
<g filter="url(#filter1_f_177_66)">
<mask id="path-2-outside-1_177_66" maskUnits="userSpaceOnUse" x="75" y="232" width="264" height="22" fill="black">
<rect fill="white" x="75" y="232" width="264" height="22"/>
<path d="M96.3398 249.898C95.7773 250.133 95.2109 250.344 94.6406 250.531C94.0703 250.719 93.4805 250.879 92.8711 251.012C92.2617 251.152 91.6172 251.258 90.9375 251.328C90.2656 251.398 89.543 251.434 88.7695 251.434C87.1289 251.434 85.6172 251.258 84.2344 250.906C82.8594 250.555 81.6719 250.027 80.6719 249.324C79.6797 248.613 78.9062 247.73 78.3516 246.676C77.7969 245.613 77.5195 244.375 77.5195 242.961C77.5195 241.547 77.7969 240.312 78.3516 239.258C78.9062 238.195 79.6797 237.312 80.6719 236.609C81.6719 235.898 82.8594 235.367 84.2344 235.016C85.6172 234.664 87.1289 234.488 88.7695 234.488C89.543 234.488 90.2656 234.523 90.9375 234.594C91.6172 234.664 92.2617 234.77 92.8711 234.91C93.4805 235.043 94.0703 235.203 94.6406 235.391C95.2109 235.578 95.7773 235.789 96.3398 236.023V239.938C95.8945 239.695 95.4258 239.457 94.9336 239.223C94.4414 238.98 93.8984 238.766 93.3047 238.578C92.7109 238.383 92.0586 238.227 91.3477 238.109C90.6367 237.984 89.8359 237.922 88.9453 237.922C87.5781 237.922 86.4414 238.062 85.5352 238.344C84.6367 238.625 83.918 239 83.3789 239.469C82.8398 239.938 82.4609 240.477 82.2422 241.086C82.0234 241.688 81.9141 242.312 81.9141 242.961C81.9141 243.391 81.9609 243.816 82.0547 244.238C82.1484 244.652 82.3047 245.047 82.5234 245.422C82.7422 245.789 83.0273 246.129 83.3789 246.441C83.7305 246.754 84.168 247.023 84.6914 247.25C85.2148 247.477 85.8242 247.656 86.5195 247.789C87.2227 247.914 88.0312 247.977 88.9453 247.977C89.8359 247.977 90.6367 247.922 91.3477 247.812C92.0586 247.695 92.7109 247.543 93.3047 247.355C93.8984 247.168 94.4414 246.957 94.9336 246.723C95.4258 246.48 95.8945 246.234 96.3398 245.984V249.898ZM121.23 242.961C121.23 244.344 120.977 245.566 120.469 246.629C119.961 247.684 119.234 248.566 118.289 249.277C117.344 249.988 116.195 250.527 114.844 250.895C113.5 251.254 111.988 251.434 110.309 251.434C108.629 251.434 107.109 251.254 105.75 250.895C104.398 250.527 103.246 249.988 102.293 249.277C101.34 248.566 100.605 247.684 100.09 246.629C99.5742 245.566 99.3164 244.344 99.3164 242.961C99.3164 241.578 99.5742 240.359 100.09 239.305C100.605 238.242 101.34 237.355 102.293 236.645C103.246 235.934 104.398 235.398 105.75 235.039C107.109 234.672 108.629 234.488 110.309 234.488C111.988 234.488 113.5 234.672 114.844 235.039C116.195 235.398 117.344 235.934 118.289 236.645C119.234 237.355 119.961 238.242 120.469 239.305C120.977 240.359 121.23 241.578 121.23 242.961ZM116.836 242.961C116.836 242.359 116.738 241.762 116.543 241.168C116.355 240.566 116.016 240.027 115.523 239.551C115.039 239.074 114.375 238.688 113.531 238.391C112.688 238.094 111.613 237.945 110.309 237.945C109.434 237.945 108.664 238.016 108 238.156C107.336 238.289 106.762 238.477 106.277 238.719C105.793 238.961 105.387 239.246 105.059 239.574C104.73 239.895 104.469 240.242 104.273 240.617C104.078 240.984 103.938 241.371 103.852 241.777C103.773 242.176 103.734 242.57 103.734 242.961C103.734 243.359 103.773 243.762 103.852 244.168C103.938 244.574 104.078 244.965 104.273 245.34C104.469 245.707 104.73 246.051 105.059 246.371C105.387 246.691 105.793 246.973 106.277 247.215C106.762 247.449 107.336 247.637 108 247.777C108.664 247.91 109.434 247.977 110.309 247.977C111.613 247.977 112.688 247.828 113.531 247.531C114.375 247.234 115.039 246.848 115.523 246.371C116.016 245.895 116.355 245.359 116.543 244.766C116.738 244.164 116.836 243.562 116.836 242.961ZM129.539 234.898V236.668C129.922 236.426 130.336 236.176 130.781 235.918C131.234 235.66 131.723 235.426 132.246 235.215C132.777 235.004 133.344 234.832 133.945 234.699C134.555 234.559 135.211 234.488 135.914 234.488C136.602 234.488 137.203 234.562 137.719 234.711C138.234 234.852 138.68 235.039 139.055 235.273C139.438 235.5 139.762 235.758 140.027 236.047C140.293 236.328 140.523 236.609 140.719 236.891C141.273 236.531 141.82 236.203 142.359 235.906C142.898 235.609 143.441 235.355 143.988 235.145C144.535 234.934 145.094 234.773 145.664 234.664C146.234 234.547 146.828 234.488 147.445 234.488C148.43 234.488 149.309 234.625 150.082 234.898C150.863 235.172 151.523 235.547 152.062 236.023C152.602 236.5 153.012 237.062 153.293 237.711C153.582 238.352 153.727 239.039 153.727 239.773V251H149.379V240.395C149.379 239.965 149.312 239.594 149.18 239.281C149.047 238.969 148.867 238.715 148.641 238.52C148.422 238.324 148.16 238.18 147.855 238.086C147.559 237.992 147.242 237.945 146.906 237.945C145.344 237.945 143.562 238.648 141.562 240.055C141.586 240.188 141.602 240.344 141.609 240.523C141.625 240.703 141.633 240.883 141.633 241.062V251H137.285V240.301C137.285 239.871 137.219 239.508 137.086 239.211C136.953 238.906 136.77 238.66 136.535 238.473C136.309 238.285 136.043 238.152 135.738 238.074C135.441 237.988 135.125 237.945 134.789 237.945C134.383 237.945 133.953 238.004 133.5 238.121C133.055 238.238 132.602 238.402 132.141 238.613C131.688 238.824 131.238 239.074 130.793 239.363C130.355 239.652 129.938 239.965 129.539 240.301V251H125.191V234.898H129.539ZM158.707 251V234.898H163.055V251H158.707ZM183.445 251V241.977C183.445 241.375 183.395 240.832 183.293 240.348C183.191 239.855 183 239.438 182.719 239.094C182.445 238.742 182.059 238.473 181.559 238.285C181.066 238.09 180.43 237.992 179.648 237.992C179.055 237.992 178.43 238.074 177.773 238.238C177.125 238.395 176.48 238.605 175.84 238.871C175.199 239.137 174.586 239.445 174 239.797C173.422 240.148 172.906 240.516 172.453 240.898V251H168.105V234.898H172.453V237.102C173 236.789 173.582 236.48 174.199 236.176C174.816 235.863 175.473 235.582 176.168 235.332C176.863 235.082 177.602 234.879 178.383 234.723C179.164 234.566 179.988 234.488 180.855 234.488C181.941 234.488 182.91 234.621 183.762 234.887C184.621 235.145 185.348 235.516 185.941 236C186.535 236.477 186.988 237.059 187.301 237.746C187.621 238.426 187.781 239.188 187.781 240.031V251H183.445ZM203.133 234.488C204.711 234.488 206.176 234.625 207.527 234.898C208.887 235.164 210.133 235.508 211.266 235.93V239.867C210.82 239.617 210.316 239.375 209.754 239.141C209.199 238.906 208.594 238.699 207.938 238.52C207.281 238.34 206.578 238.195 205.828 238.086C205.078 237.977 204.289 237.922 203.461 237.922C202.43 237.922 201.531 237.996 200.766 238.145C200 238.293 199.344 238.492 198.797 238.742C198.25 238.992 197.801 239.285 197.449 239.621C197.098 239.949 196.82 240.301 196.617 240.676C196.414 241.051 196.273 241.434 196.195 241.824C196.117 242.215 196.078 242.594 196.078 242.961C196.078 243.281 196.109 243.629 196.172 244.004C196.242 244.379 196.367 244.754 196.547 245.129C196.734 245.504 196.992 245.863 197.32 246.207C197.648 246.551 198.074 246.855 198.598 247.121C199.129 247.387 199.766 247.602 200.508 247.766C201.25 247.922 202.133 248 203.156 248C203.672 248 204.121 247.984 204.504 247.953C204.887 247.922 205.234 247.879 205.547 247.824C205.867 247.77 206.164 247.703 206.438 247.625C206.719 247.547 207.008 247.465 207.305 247.379V245.434H202.43V241.906H211.652V250.133C211.074 250.328 210.426 250.508 209.707 250.672C208.996 250.828 208.258 250.961 207.492 251.07C206.734 251.188 205.973 251.277 205.207 251.34C204.441 251.402 203.719 251.434 203.039 251.434C201.984 251.434 200.973 251.363 200.004 251.223C199.035 251.082 198.129 250.867 197.285 250.578C196.449 250.281 195.684 249.906 194.988 249.453C194.301 249 193.711 248.461 193.219 247.836C192.734 247.211 192.355 246.496 192.082 245.691C191.816 244.879 191.684 243.969 191.684 242.961C191.684 241.961 191.824 241.055 192.105 240.242C192.387 239.43 192.777 238.711 193.277 238.086C193.785 237.461 194.391 236.922 195.094 236.469C195.805 236.016 196.582 235.645 197.426 235.355C198.277 235.059 199.184 234.84 200.145 234.699C201.113 234.559 202.109 234.488 203.133 234.488ZM240.199 239.434C239.895 239.285 239.492 239.117 238.992 238.93C238.492 238.742 237.926 238.566 237.293 238.402C236.66 238.23 235.973 238.09 235.23 237.98C234.488 237.863 233.727 237.805 232.945 237.805C232.32 237.805 231.785 237.824 231.34 237.863C230.902 237.902 230.531 237.953 230.227 238.016C229.93 238.078 229.691 238.152 229.512 238.238C229.34 238.316 229.207 238.398 229.113 238.484C229.02 238.57 228.957 238.656 228.926 238.742C228.902 238.828 228.891 238.906 228.891 238.977C228.891 239.211 229.008 239.418 229.242 239.598C229.477 239.77 229.797 239.926 230.203 240.066C230.609 240.199 231.082 240.328 231.621 240.453C232.16 240.57 232.73 240.695 233.332 240.828C233.941 240.953 234.566 241.094 235.207 241.25C235.855 241.398 236.48 241.574 237.082 241.777C237.691 241.98 238.266 242.219 238.805 242.492C239.344 242.758 239.816 243.07 240.223 243.43C240.629 243.789 240.949 244.203 241.184 244.672C241.418 245.141 241.535 245.676 241.535 246.277C241.535 247.051 241.398 247.715 241.125 248.27C240.852 248.824 240.484 249.293 240.023 249.676C239.57 250.059 239.043 250.367 238.441 250.602C237.84 250.828 237.207 251.004 236.543 251.129C235.887 251.254 235.219 251.336 234.539 251.375C233.867 251.414 233.227 251.434 232.617 251.434C231.023 251.434 229.547 251.301 228.188 251.035C226.836 250.777 225.641 250.453 224.602 250.062V246.219C225.672 246.812 226.891 247.277 228.258 247.613C229.633 247.949 231.102 248.117 232.664 248.117C233.586 248.117 234.336 248.07 234.914 247.977C235.5 247.875 235.957 247.75 236.285 247.602C236.613 247.445 236.836 247.277 236.953 247.098C237.07 246.918 237.129 246.746 237.129 246.582C237.129 246.324 237.012 246.102 236.777 245.914C236.543 245.719 236.223 245.551 235.816 245.41C235.41 245.262 234.938 245.129 234.398 245.012C233.859 244.887 233.285 244.766 232.676 244.648C232.074 244.523 231.453 244.391 230.812 244.25C230.172 244.109 229.547 243.945 228.938 243.758C228.336 243.562 227.766 243.34 227.227 243.09C226.688 242.832 226.215 242.531 225.809 242.188C225.402 241.836 225.082 241.434 224.848 240.98C224.613 240.52 224.496 239.988 224.496 239.387C224.496 238.676 224.621 238.062 224.871 237.547C225.121 237.031 225.457 236.594 225.879 236.234C226.309 235.867 226.801 235.57 227.355 235.344C227.918 235.117 228.508 234.941 229.125 234.816C229.742 234.691 230.367 234.605 231 234.559C231.633 234.512 232.234 234.488 232.805 234.488C233.43 234.488 234.07 234.52 234.727 234.582C235.391 234.645 236.043 234.734 236.684 234.852C237.324 234.961 237.941 235.09 238.535 235.238C239.137 235.387 239.691 235.543 240.199 235.707V239.434ZM266.496 242.961C266.496 244.344 266.242 245.566 265.734 246.629C265.227 247.684 264.5 248.566 263.555 249.277C262.609 249.988 261.461 250.527 260.109 250.895C258.766 251.254 257.254 251.434 255.574 251.434C253.895 251.434 252.375 251.254 251.016 250.895C249.664 250.527 248.512 249.988 247.559 249.277C246.605 248.566 245.871 247.684 245.355 246.629C244.84 245.566 244.582 244.344 244.582 242.961C244.582 241.578 244.84 240.359 245.355 239.305C245.871 238.242 246.605 237.355 247.559 236.645C248.512 235.934 249.664 235.398 251.016 235.039C252.375 234.672 253.895 234.488 255.574 234.488C257.254 234.488 258.766 234.672 260.109 235.039C261.461 235.398 262.609 235.934 263.555 236.645C264.5 237.355 265.227 238.242 265.734 239.305C266.242 240.359 266.496 241.578 266.496 242.961ZM262.102 242.961C262.102 242.359 262.004 241.762 261.809 241.168C261.621 240.566 261.281 240.027 260.789 239.551C260.305 239.074 259.641 238.688 258.797 238.391C257.953 238.094 256.879 237.945 255.574 237.945C254.699 237.945 253.93 238.016 253.266 238.156C252.602 238.289 252.027 238.477 251.543 238.719C251.059 238.961 250.652 239.246 250.324 239.574C249.996 239.895 249.734 240.242 249.539 240.617C249.344 240.984 249.203 241.371 249.117 241.777C249.039 242.176 249 242.57 249 242.961C249 243.359 249.039 243.762 249.117 244.168C249.203 244.574 249.344 244.965 249.539 245.34C249.734 245.707 249.996 246.051 250.324 246.371C250.652 246.691 251.059 246.973 251.543 247.215C252.027 247.449 252.602 247.637 253.266 247.777C253.93 247.91 254.699 247.977 255.574 247.977C256.879 247.977 257.953 247.828 258.797 247.531C259.641 247.234 260.305 246.848 260.789 246.371C261.281 245.895 261.621 245.359 261.809 244.766C262.004 244.164 262.102 243.562 262.102 242.961ZM291.293 242.961C291.293 244.344 291.039 245.566 290.531 246.629C290.023 247.684 289.297 248.566 288.352 249.277C287.406 249.988 286.258 250.527 284.906 250.895C283.562 251.254 282.051 251.434 280.371 251.434C278.691 251.434 277.172 251.254 275.812 250.895C274.461 250.527 273.309 249.988 272.355 249.277C271.402 248.566 270.668 247.684 270.152 246.629C269.637 245.566 269.379 244.344 269.379 242.961C269.379 241.578 269.637 240.359 270.152 239.305C270.668 238.242 271.402 237.355 272.355 236.645C273.309 235.934 274.461 235.398 275.812 235.039C277.172 234.672 278.691 234.488 280.371 234.488C282.051 234.488 283.562 234.672 284.906 235.039C286.258 235.398 287.406 235.934 288.352 236.645C289.297 237.355 290.023 238.242 290.531 239.305C291.039 240.359 291.293 241.578 291.293 242.961ZM286.898 242.961C286.898 242.359 286.801 241.762 286.605 241.168C286.418 240.566 286.078 240.027 285.586 239.551C285.102 239.074 284.438 238.688 283.594 238.391C282.75 238.094 281.676 237.945 280.371 237.945C279.496 237.945 278.727 238.016 278.062 238.156C277.398 238.289 276.824 238.477 276.34 238.719C275.855 238.961 275.449 239.246 275.121 239.574C274.793 239.895 274.531 240.242 274.336 240.617C274.141 240.984 274 241.371 273.914 241.777C273.836 242.176 273.797 242.57 273.797 242.961C273.797 243.359 273.836 243.762 273.914 244.168C274 244.574 274.141 244.965 274.336 245.34C274.531 245.707 274.793 246.051 275.121 246.371C275.449 246.691 275.855 246.973 276.34 247.215C276.824 247.449 277.398 247.637 278.062 247.777C278.727 247.91 279.496 247.977 280.371 247.977C281.676 247.977 282.75 247.828 283.594 247.531C284.438 247.234 285.102 246.848 285.586 246.371C286.078 245.895 286.418 245.359 286.605 244.766C286.801 244.164 286.898 243.562 286.898 242.961ZM310.594 251V241.977C310.594 241.375 310.543 240.832 310.441 240.348C310.34 239.855 310.148 239.438 309.867 239.094C309.594 238.742 309.207 238.473 308.707 238.285C308.215 238.09 307.578 237.992 306.797 237.992C306.203 237.992 305.578 238.074 304.922 238.238C304.273 238.395 303.629 238.605 302.988 238.871C302.348 239.137 301.734 239.445 301.148 239.797C300.57 240.148 300.055 240.516 299.602 240.898V251H295.254V234.898H299.602V237.102C300.148 236.789 300.73 236.48 301.348 236.176C301.965 235.863 302.621 235.582 303.316 235.332C304.012 235.082 304.75 234.879 305.531 234.723C306.312 234.566 307.137 234.488 308.004 234.488C309.09 234.488 310.059 234.621 310.91 234.887C311.77 235.145 312.496 235.516 313.09 236C313.684 236.477 314.137 237.059 314.449 237.746C314.77 238.426 314.93 239.188 314.93 240.031V251H310.594ZM318.586 251V246.781H323.027V251H318.586ZM325.43 251V246.781H329.871V251H325.43ZM332.273 251V246.781H336.715V251H332.273Z"/>
</mask>
<path d="M96.3398 249.898C95.7773 250.133 95.2109 250.344 94.6406 250.531C94.0703 250.719 93.4805 250.879 92.8711 251.012C92.2617 251.152 91.6172 251.258 90.9375 251.328C90.2656 251.398 89.543 251.434 88.7695 251.434C87.1289 251.434 85.6172 251.258 84.2344 250.906C82.8594 250.555 81.6719 250.027 80.6719 249.324C79.6797 248.613 78.9062 247.73 78.3516 246.676C77.7969 245.613 77.5195 244.375 77.5195 242.961C77.5195 241.547 77.7969 240.312 78.3516 239.258C78.9062 238.195 79.6797 237.312 80.6719 236.609C81.6719 235.898 82.8594 235.367 84.2344 235.016C85.6172 234.664 87.1289 234.488 88.7695 234.488C89.543 234.488 90.2656 234.523 90.9375 234.594C91.6172 234.664 92.2617 234.77 92.8711 234.91C93.4805 235.043 94.0703 235.203 94.6406 235.391C95.2109 235.578 95.7773 235.789 96.3398 236.023V239.938C95.8945 239.695 95.4258 239.457 94.9336 239.223C94.4414 238.98 93.8984 238.766 93.3047 238.578C92.7109 238.383 92.0586 238.227 91.3477 238.109C90.6367 237.984 89.8359 237.922 88.9453 237.922C87.5781 237.922 86.4414 238.062 85.5352 238.344C84.6367 238.625 83.918 239 83.3789 239.469C82.8398 239.938 82.4609 240.477 82.2422 241.086C82.0234 241.688 81.9141 242.312 81.9141 242.961C81.9141 243.391 81.9609 243.816 82.0547 244.238C82.1484 244.652 82.3047 245.047 82.5234 245.422C82.7422 245.789 83.0273 246.129 83.3789 246.441C83.7305 246.754 84.168 247.023 84.6914 247.25C85.2148 247.477 85.8242 247.656 86.5195 247.789C87.2227 247.914 88.0312 247.977 88.9453 247.977C89.8359 247.977 90.6367 247.922 91.3477 247.812C92.0586 247.695 92.7109 247.543 93.3047 247.355C93.8984 247.168 94.4414 246.957 94.9336 246.723C95.4258 246.48 95.8945 246.234 96.3398 245.984V249.898ZM121.23 242.961C121.23 244.344 120.977 245.566 120.469 246.629C119.961 247.684 119.234 248.566 118.289 249.277C117.344 249.988 116.195 250.527 114.844 250.895C113.5 251.254 111.988 251.434 110.309 251.434C108.629 251.434 107.109 251.254 105.75 250.895C104.398 250.527 103.246 249.988 102.293 249.277C101.34 248.566 100.605 247.684 100.09 246.629C99.5742 245.566 99.3164 244.344 99.3164 242.961C99.3164 241.578 99.5742 240.359 100.09 239.305C100.605 238.242 101.34 237.355 102.293 236.645C103.246 235.934 104.398 235.398 105.75 235.039C107.109 234.672 108.629 234.488 110.309 234.488C111.988 234.488 113.5 234.672 114.844 235.039C116.195 235.398 117.344 235.934 118.289 236.645C119.234 237.355 119.961 238.242 120.469 239.305C120.977 240.359 121.23 241.578 121.23 242.961ZM116.836 242.961C116.836 242.359 116.738 241.762 116.543 241.168C116.355 240.566 116.016 240.027 115.523 239.551C115.039 239.074 114.375 238.688 113.531 238.391C112.688 238.094 111.613 237.945 110.309 237.945C109.434 237.945 108.664 238.016 108 238.156C107.336 238.289 106.762 238.477 106.277 238.719C105.793 238.961 105.387 239.246 105.059 239.574C104.73 239.895 104.469 240.242 104.273 240.617C104.078 240.984 103.938 241.371 103.852 241.777C103.773 242.176 103.734 242.57 103.734 242.961C103.734 243.359 103.773 243.762 103.852 244.168C103.938 244.574 104.078 244.965 104.273 245.34C104.469 245.707 104.73 246.051 105.059 246.371C105.387 246.691 105.793 246.973 106.277 247.215C106.762 247.449 107.336 247.637 108 247.777C108.664 247.91 109.434 247.977 110.309 247.977C111.613 247.977 112.688 247.828 113.531 247.531C114.375 247.234 115.039 246.848 115.523 246.371C116.016 245.895 116.355 245.359 116.543 244.766C116.738 244.164 116.836 243.562 116.836 242.961ZM129.539 234.898V236.668C129.922 236.426 130.336 236.176 130.781 235.918C131.234 235.66 131.723 235.426 132.246 235.215C132.777 235.004 133.344 234.832 133.945 234.699C134.555 234.559 135.211 234.488 135.914 234.488C136.602 234.488 137.203 234.562 137.719 234.711C138.234 234.852 138.68 235.039 139.055 235.273C139.438 235.5 139.762 235.758 140.027 236.047C140.293 236.328 140.523 236.609 140.719 236.891C141.273 236.531 141.82 236.203 142.359 235.906C142.898 235.609 143.441 235.355 143.988 235.145C144.535 234.934 145.094 234.773 145.664 234.664C146.234 234.547 146.828 234.488 147.445 234.488C148.43 234.488 149.309 234.625 150.082 234.898C150.863 235.172 151.523 235.547 152.062 236.023C152.602 236.5 153.012 237.062 153.293 237.711C153.582 238.352 153.727 239.039 153.727 239.773V251H149.379V240.395C149.379 239.965 149.312 239.594 149.18 239.281C149.047 238.969 148.867 238.715 148.641 238.52C148.422 238.324 148.16 238.18 147.855 238.086C147.559 237.992 147.242 237.945 146.906 237.945C145.344 237.945 143.562 238.648 141.562 240.055C141.586 240.188 141.602 240.344 141.609 240.523C141.625 240.703 141.633 240.883 141.633 241.062V251H137.285V240.301C137.285 239.871 137.219 239.508 137.086 239.211C136.953 238.906 136.77 238.66 136.535 238.473C136.309 238.285 136.043 238.152 135.738 238.074C135.441 237.988 135.125 237.945 134.789 237.945C134.383 237.945 133.953 238.004 133.5 238.121C133.055 238.238 132.602 238.402 132.141 238.613C131.688 238.824 131.238 239.074 130.793 239.363C130.355 239.652 129.938 239.965 129.539 240.301V251H125.191V234.898H129.539ZM158.707 251V234.898H163.055V251H158.707ZM183.445 251V241.977C183.445 241.375 183.395 240.832 183.293 240.348C183.191 239.855 183 239.438 182.719 239.094C182.445 238.742 182.059 238.473 181.559 238.285C181.066 238.09 180.43 237.992 179.648 237.992C179.055 237.992 178.43 238.074 177.773 238.238C177.125 238.395 176.48 238.605 175.84 238.871C175.199 239.137 174.586 239.445 174 239.797C173.422 240.148 172.906 240.516 172.453 240.898V251H168.105V234.898H172.453V237.102C173 236.789 173.582 236.48 174.199 236.176C174.816 235.863 175.473 235.582 176.168 235.332C176.863 235.082 177.602 234.879 178.383 234.723C179.164 234.566 179.988 234.488 180.855 234.488C181.941 234.488 182.91 234.621 183.762 234.887C184.621 235.145 185.348 235.516 185.941 236C186.535 236.477 186.988 237.059 187.301 237.746C187.621 238.426 187.781 239.188 187.781 240.031V251H183.445ZM203.133 234.488C204.711 234.488 206.176 234.625 207.527 234.898C208.887 235.164 210.133 235.508 211.266 235.93V239.867C210.82 239.617 210.316 239.375 209.754 239.141C209.199 238.906 208.594 238.699 207.938 238.52C207.281 238.34 206.578 238.195 205.828 238.086C205.078 237.977 204.289 237.922 203.461 237.922C202.43 237.922 201.531 237.996 200.766 238.145C200 238.293 199.344 238.492 198.797 238.742C198.25 238.992 197.801 239.285 197.449 239.621C197.098 239.949 196.82 240.301 196.617 240.676C196.414 241.051 196.273 241.434 196.195 241.824C196.117 242.215 196.078 242.594 196.078 242.961C196.078 243.281 196.109 243.629 196.172 244.004C196.242 244.379 196.367 244.754 196.547 245.129C196.734 245.504 196.992 245.863 197.32 246.207C197.648 246.551 198.074 246.855 198.598 247.121C199.129 247.387 199.766 247.602 200.508 247.766C201.25 247.922 202.133 248 203.156 248C203.672 248 204.121 247.984 204.504 247.953C204.887 247.922 205.234 247.879 205.547 247.824C205.867 247.77 206.164 247.703 206.438 247.625C206.719 247.547 207.008 247.465 207.305 247.379V245.434H202.43V241.906H211.652V250.133C211.074 250.328 210.426 250.508 209.707 250.672C208.996 250.828 208.258 250.961 207.492 251.07C206.734 251.188 205.973 251.277 205.207 251.34C204.441 251.402 203.719 251.434 203.039 251.434C201.984 251.434 200.973 251.363 200.004 251.223C199.035 251.082 198.129 250.867 197.285 250.578C196.449 250.281 195.684 249.906 194.988 249.453C194.301 249 193.711 248.461 193.219 247.836C192.734 247.211 192.355 246.496 192.082 245.691C191.816 244.879 191.684 243.969 191.684 242.961C191.684 241.961 191.824 241.055 192.105 240.242C192.387 239.43 192.777 238.711 193.277 238.086C193.785 237.461 194.391 236.922 195.094 236.469C195.805 236.016 196.582 235.645 197.426 235.355C198.277 235.059 199.184 234.84 200.145 234.699C201.113 234.559 202.109 234.488 203.133 234.488ZM240.199 239.434C239.895 239.285 239.492 239.117 238.992 238.93C238.492 238.742 237.926 238.566 237.293 238.402C236.66 238.23 235.973 238.09 235.23 237.98C234.488 237.863 233.727 237.805 232.945 237.805C232.32 237.805 231.785 237.824 231.34 237.863C230.902 237.902 230.531 237.953 230.227 238.016C229.93 238.078 229.691 238.152 229.512 238.238C229.34 238.316 229.207 238.398 229.113 238.484C229.02 238.57 228.957 238.656 228.926 238.742C228.902 238.828 228.891 238.906 228.891 238.977C228.891 239.211 229.008 239.418 229.242 239.598C229.477 239.77 229.797 239.926 230.203 240.066C230.609 240.199 231.082 240.328 231.621 240.453C232.16 240.57 232.73 240.695 233.332 240.828C233.941 240.953 234.566 241.094 235.207 241.25C235.855 241.398 236.48 241.574 237.082 241.777C237.691 241.98 238.266 242.219 238.805 242.492C239.344 242.758 239.816 243.07 240.223 243.43C240.629 243.789 240.949 244.203 241.184 244.672C241.418 245.141 241.535 245.676 241.535 246.277C241.535 247.051 241.398 247.715 241.125 248.27C240.852 248.824 240.484 249.293 240.023 249.676C239.57 250.059 239.043 250.367 238.441 250.602C237.84 250.828 237.207 251.004 236.543 251.129C235.887 251.254 235.219 251.336 234.539 251.375C233.867 251.414 233.227 251.434 232.617 251.434C231.023 251.434 229.547 251.301 228.188 251.035C226.836 250.777 225.641 250.453 224.602 250.062V246.219C225.672 246.812 226.891 247.277 228.258 247.613C229.633 247.949 231.102 248.117 232.664 248.117C233.586 248.117 234.336 248.07 234.914 247.977C235.5 247.875 235.957 247.75 236.285 247.602C236.613 247.445 236.836 247.277 236.953 247.098C237.07 246.918 237.129 246.746 237.129 246.582C237.129 246.324 237.012 246.102 236.777 245.914C236.543 245.719 236.223 245.551 235.816 245.41C235.41 245.262 234.938 245.129 234.398 245.012C233.859 244.887 233.285 244.766 232.676 244.648C232.074 244.523 231.453 244.391 230.812 244.25C230.172 244.109 229.547 243.945 228.938 243.758C228.336 243.562 227.766 243.34 227.227 243.09C226.688 242.832 226.215 242.531 225.809 242.188C225.402 241.836 225.082 241.434 224.848 240.98C224.613 240.52 224.496 239.988 224.496 239.387C224.496 238.676 224.621 238.062 224.871 237.547C225.121 237.031 225.457 236.594 225.879 236.234C226.309 235.867 226.801 235.57 227.355 235.344C227.918 235.117 228.508 234.941 229.125 234.816C229.742 234.691 230.367 234.605 231 234.559C231.633 234.512 232.234 234.488 232.805 234.488C233.43 234.488 234.07 234.52 234.727 234.582C235.391 234.645 236.043 234.734 236.684 234.852C237.324 234.961 237.941 235.09 238.535 235.238C239.137 235.387 239.691 235.543 240.199 235.707V239.434ZM266.496 242.961C266.496 244.344 266.242 245.566 265.734 246.629C265.227 247.684 264.5 248.566 263.555 249.277C262.609 249.988 261.461 250.527 260.109 250.895C258.766 251.254 257.254 251.434 255.574 251.434C253.895 251.434 252.375 251.254 251.016 250.895C249.664 250.527 248.512 249.988 247.559 249.277C246.605 248.566 245.871 247.684 245.355 246.629C244.84 245.566 244.582 244.344 244.582 242.961C244.582 241.578 244.84 240.359 245.355 239.305C245.871 238.242 246.605 237.355 247.559 236.645C248.512 235.934 249.664 235.398 251.016 235.039C252.375 234.672 253.895 234.488 255.574 234.488C257.254 234.488 258.766 234.672 260.109 235.039C261.461 235.398 262.609 235.934 263.555 236.645C264.5 237.355 265.227 238.242 265.734 239.305C266.242 240.359 266.496 241.578 266.496 242.961ZM262.102 242.961C262.102 242.359 262.004 241.762 261.809 241.168C261.621 240.566 261.281 240.027 260.789 239.551C260.305 239.074 259.641 238.688 258.797 238.391C257.953 238.094 256.879 237.945 255.574 237.945C254.699 237.945 253.93 238.016 253.266 238.156C252.602 238.289 252.027 238.477 251.543 238.719C251.059 238.961 250.652 239.246 250.324 239.574C249.996 239.895 249.734 240.242 249.539 240.617C249.344 240.984 249.203 241.371 249.117 241.777C249.039 242.176 249 242.57 249 242.961C249 243.359 249.039 243.762 249.117 244.168C249.203 244.574 249.344 244.965 249.539 245.34C249.734 245.707 249.996 246.051 250.324 246.371C250.652 246.691 251.059 246.973 251.543 247.215C252.027 247.449 252.602 247.637 253.266 247.777C253.93 247.91 254.699 247.977 255.574 247.977C256.879 247.977 257.953 247.828 258.797 247.531C259.641 247.234 260.305 246.848 260.789 246.371C261.281 245.895 261.621 245.359 261.809 244.766C262.004 244.164 262.102 243.562 262.102 242.961ZM291.293 242.961C291.293 244.344 291.039 245.566 290.531 246.629C290.023 247.684 289.297 248.566 288.352 249.277C287.406 249.988 286.258 250.527 284.906 250.895C283.562 251.254 282.051 251.434 280.371 251.434C278.691 251.434 277.172 251.254 275.812 250.895C274.461 250.527 273.309 249.988 272.355 249.277C271.402 248.566 270.668 247.684 270.152 246.629C269.637 245.566 269.379 244.344 269.379 242.961C269.379 241.578 269.637 240.359 270.152 239.305C270.668 238.242 271.402 237.355 272.355 236.645C273.309 235.934 274.461 235.398 275.812 235.039C277.172 234.672 278.691 234.488 280.371 234.488C282.051 234.488 283.562 234.672 284.906 235.039C286.258 235.398 287.406 235.934 288.352 236.645C289.297 237.355 290.023 238.242 290.531 239.305C291.039 240.359 291.293 241.578 291.293 242.961ZM286.898 242.961C286.898 242.359 286.801 241.762 286.605 241.168C286.418 240.566 286.078 240.027 285.586 239.551C285.102 239.074 284.438 238.688 283.594 238.391C282.75 238.094 281.676 237.945 280.371 237.945C279.496 237.945 278.727 238.016 278.062 238.156C277.398 238.289 276.824 238.477 276.34 238.719C275.855 238.961 275.449 239.246 275.121 239.574C274.793 239.895 274.531 240.242 274.336 240.617C274.141 240.984 274 241.371 273.914 241.777C273.836 242.176 273.797 242.57 273.797 242.961C273.797 243.359 273.836 243.762 273.914 244.168C274 244.574 274.141 244.965 274.336 245.34C274.531 245.707 274.793 246.051 275.121 246.371C275.449 246.691 275.855 246.973 276.34 247.215C276.824 247.449 277.398 247.637 278.062 247.777C278.727 247.91 279.496 247.977 280.371 247.977C281.676 247.977 282.75 247.828 283.594 247.531C284.438 247.234 285.102 246.848 285.586 246.371C286.078 245.895 286.418 245.359 286.605 244.766C286.801 244.164 286.898 243.562 286.898 242.961ZM310.594 251V241.977C310.594 241.375 310.543 240.832 310.441 240.348C310.34 239.855 310.148 239.438 309.867 239.094C309.594 238.742 309.207 238.473 308.707 238.285C308.215 238.09 307.578 237.992 306.797 237.992C306.203 237.992 305.578 238.074 304.922 238.238C304.273 238.395 303.629 238.605 302.988 238.871C302.348 239.137 301.734 239.445 301.148 239.797C300.57 240.148 300.055 240.516 299.602 240.898V251H295.254V234.898H299.602V237.102C300.148 236.789 300.73 236.48 301.348 236.176C301.965 235.863 302.621 235.582 303.316 235.332C304.012 235.082 304.75 234.879 305.531 234.723C306.312 234.566 307.137 234.488 308.004 234.488C309.09 234.488 310.059 234.621 310.91 234.887C311.77 235.145 312.496 235.516 313.09 236C313.684 236.477 314.137 237.059 314.449 237.746C314.77 238.426 314.93 239.188 314.93 240.031V251H310.594ZM318.586 251V246.781H323.027V251H318.586ZM325.43 251V246.781H329.871V251H325.43ZM332.273 251V246.781H336.715V251H332.273Z" fill="#EDF1D6"/>
<path d="M96.3398 249.898L97.1091 251.745L98.3398 251.232V249.898H96.3398ZM92.8711 251.012L92.4452 249.058L92.4333 249.06L92.4214 249.063L92.8711 251.012ZM90.9375 251.328L90.7317 249.339L90.7293 249.339L90.9375 251.328ZM84.2344 250.906L83.7389 252.844L83.7416 252.845L84.2344 250.906ZM80.6719 249.324L79.507 250.95L79.5142 250.955L79.5215 250.96L80.6719 249.324ZM78.3516 246.676L76.5786 247.601L76.5814 247.607L78.3516 246.676ZM78.3516 239.258L80.1217 240.189L80.1245 240.183L78.3516 239.258ZM80.6719 236.609L81.8283 238.241L81.8307 238.239L80.6719 236.609ZM84.2344 235.016L83.7416 233.077L83.7389 233.078L84.2344 235.016ZM90.9375 234.594L90.7293 236.583L90.7317 236.583L90.9375 234.594ZM92.8711 234.91L92.4214 236.859L92.4333 236.862L92.4452 236.864L92.8711 234.91ZM96.3398 236.023H98.3398V234.69L97.1091 234.177L96.3398 236.023ZM96.3398 239.938L95.3843 241.694L98.3398 243.302V239.938H96.3398ZM94.9336 239.223L94.0506 241.017L94.0621 241.023L94.0737 241.028L94.9336 239.223ZM93.3047 238.578L92.6797 240.478L92.6911 240.482L92.7024 240.485L93.3047 238.578ZM91.3477 238.109L91.0013 240.079L91.0118 240.081L91.0224 240.083L91.3477 238.109ZM85.5352 238.344L84.9424 236.434L84.9377 236.435L85.5352 238.344ZM82.2422 241.086L84.1218 241.769L84.1246 241.762L82.2422 241.086ZM82.0547 244.238L80.1023 244.672L80.1041 244.68L82.0547 244.238ZM82.5234 245.422L80.7959 246.43L80.8005 246.438L80.8052 246.445L82.5234 245.422ZM86.5195 247.789L86.1443 249.754L86.1569 249.756L86.1695 249.758L86.5195 247.789ZM91.3477 247.812L91.6518 249.789L91.6624 249.788L91.6729 249.786L91.3477 247.812ZM94.9336 246.723L95.7935 248.528L95.8051 248.523L95.8166 248.517L94.9336 246.723ZM96.3398 245.984H98.3398V242.568L95.3608 244.24L96.3398 245.984ZM95.5706 248.052C95.0549 248.267 94.5367 248.46 94.016 248.631L95.2653 252.431C95.8852 252.227 96.4998 251.998 97.1091 251.745L95.5706 248.052ZM94.016 248.631C93.5134 248.797 92.99 248.939 92.4452 249.058L93.297 252.966C93.9709 252.819 94.6272 252.641 95.2653 252.431L94.016 248.631ZM92.4214 249.063C91.8994 249.183 91.3368 249.276 90.7317 249.339L91.1433 253.318C91.8976 253.239 92.6241 253.121 93.3208 252.961L92.4214 249.063ZM90.7293 249.339C90.1357 249.401 89.4832 249.434 88.7695 249.434V253.434C89.6028 253.434 90.3956 253.396 91.1457 253.317L90.7293 249.339ZM88.7695 249.434C87.2708 249.434 85.927 249.273 84.7272 248.968L83.7416 252.845C85.3074 253.243 86.987 253.434 88.7695 253.434V249.434ZM84.7298 248.969C83.5524 248.668 82.5948 248.231 81.8222 247.688L79.5215 250.96C80.7489 251.823 82.1664 252.442 83.7389 252.844L84.7298 248.969ZM81.8368 247.698C81.0913 247.164 80.5279 246.517 80.1217 245.745L76.5814 247.607C77.2846 248.944 78.2681 250.062 79.507 250.95L81.8368 247.698ZM80.1245 245.75C79.7436 245.021 79.5195 244.111 79.5195 242.961H75.5195C75.5195 244.639 75.8501 246.206 76.5786 247.601L80.1245 245.75ZM79.5195 242.961C79.5195 241.811 79.7438 240.907 80.1217 240.189L76.5814 238.327C75.85 239.718 75.5195 241.283 75.5195 242.961H79.5195ZM80.1245 240.183C80.5303 239.406 81.0907 238.764 81.8283 238.241L79.5155 234.978C78.2687 235.861 77.2822 236.985 76.5786 238.332L80.1245 240.183ZM81.8307 238.239C82.6016 237.691 83.5562 237.253 84.7298 236.953L83.7389 233.078C82.1626 233.481 80.7422 234.105 79.513 234.979L81.8307 238.239ZM84.7272 236.954C85.927 236.649 87.2708 236.488 88.7695 236.488V232.488C86.987 232.488 85.3074 232.679 83.7416 233.077L84.7272 236.954ZM88.7695 236.488C89.4832 236.488 90.1357 236.521 90.7293 236.583L91.1457 232.605C90.3956 232.526 89.6028 232.488 88.7695 232.488V236.488ZM90.7317 236.583C91.3368 236.646 91.8994 236.738 92.4214 236.859L93.3208 232.961C92.6241 232.801 91.8976 232.682 91.1433 232.604L90.7317 236.583ZM92.4452 236.864C92.99 236.983 93.5134 237.125 94.016 237.291L95.2653 233.491C94.6272 233.281 93.9709 233.103 93.297 232.956L92.4452 236.864ZM94.016 237.291C94.5367 237.462 95.0549 237.655 95.5706 237.87L97.1091 234.177C96.4998 233.923 95.8852 233.694 95.2653 233.491L94.016 237.291ZM94.3398 236.023V239.938H98.3398V236.023H94.3398ZM97.2954 238.181C96.8164 237.92 96.3156 237.666 95.7935 237.417L94.0737 241.028C94.536 241.249 94.9727 241.471 95.3843 241.694L97.2954 238.181ZM95.8166 237.428C95.2227 237.136 94.5844 236.885 93.907 236.671L92.7024 240.485C93.2125 240.646 93.6601 240.825 94.0506 241.017L95.8166 237.428ZM93.9296 236.678C93.2246 236.446 92.4705 236.267 91.6729 236.136L91.0224 240.083C91.6467 240.186 92.1973 240.319 92.6797 240.478L93.9296 236.678ZM91.694 236.14C90.8459 235.99 89.9263 235.922 88.9453 235.922V239.922C89.7456 239.922 90.4275 239.978 91.0013 240.079L91.694 236.14ZM88.9453 235.922C87.4576 235.922 86.1047 236.073 84.9424 236.434L86.128 240.254C86.7781 240.052 87.6986 239.922 88.9453 239.922V235.922ZM84.9377 236.435C83.8556 236.774 82.8687 237.262 82.0665 237.96L84.6913 240.978C84.9672 240.738 85.4178 240.476 86.1327 240.252L84.9377 236.435ZM82.0665 237.96C81.2966 238.629 80.7058 239.446 80.3598 240.41L84.1246 241.762C84.2161 241.507 84.3831 241.246 84.6913 240.978L82.0665 237.96ZM80.3626 240.402C80.0631 241.226 79.9141 242.082 79.9141 242.961H83.9141C83.9141 242.543 83.9837 242.149 84.1218 241.769L80.3626 240.402ZM79.9141 242.961C79.9141 243.537 79.9771 244.109 80.1023 244.672L84.0071 243.804C83.9448 243.524 83.9141 243.244 83.9141 242.961H79.9141ZM80.1041 244.68C80.2439 245.297 80.4767 245.882 80.7959 246.43L84.251 244.414C84.1327 244.211 84.053 244.007 84.0053 243.797L80.1041 244.68ZM80.8052 246.445C81.1389 247.006 81.5607 247.501 82.0502 247.936L84.7076 244.947C84.494 244.757 84.3455 244.573 84.2416 244.398L80.8052 246.445ZM82.0502 247.936C82.5902 248.416 83.2185 248.792 83.897 249.085L85.4859 245.415C85.1174 245.255 84.8707 245.092 84.7076 244.947L82.0502 247.936ZM83.897 249.085C84.5826 249.382 85.3379 249.6 86.1443 249.754L86.8948 245.825C86.3105 245.713 85.8471 245.571 85.4859 245.415L83.897 249.085ZM86.1695 249.758C87.0149 249.908 87.9446 249.977 88.9453 249.977V245.977C88.1179 245.977 87.4304 245.92 86.8696 245.82L86.1695 249.758ZM88.9453 249.977C89.9148 249.977 90.8198 249.917 91.6518 249.789L91.0435 245.836C90.4536 245.927 89.757 245.977 88.9453 245.977V249.977ZM91.6729 249.786C92.4634 249.656 93.2098 249.483 93.907 249.263L92.7024 245.448C92.2121 245.603 91.6537 245.735 91.0224 245.839L91.6729 249.786ZM93.907 249.263C94.5767 249.051 95.2071 248.808 95.7935 248.528L94.0737 244.917C93.6757 245.106 93.2202 245.285 92.7024 245.448L93.907 249.263ZM95.8166 248.517C96.3389 248.26 96.8398 247.997 97.3189 247.728L95.3608 244.24C94.9492 244.471 94.5127 244.701 94.0506 244.928L95.8166 248.517ZM94.3398 245.984V249.898H98.3398V245.984H94.3398ZM120.469 246.629L122.271 247.497L122.273 247.491L120.469 246.629ZM114.844 250.895L115.36 252.827L115.368 252.825L114.844 250.895ZM105.75 250.895L105.226 252.825L105.239 252.828L105.75 250.895ZM100.09 246.629L98.2905 247.502L98.2931 247.507L100.09 246.629ZM100.09 239.305L101.887 240.183L101.889 240.178L100.09 239.305ZM105.75 235.039L106.264 236.972L106.272 236.97L105.75 235.039ZM114.844 235.039L114.317 236.968L114.33 236.972L114.844 235.039ZM120.469 239.305L118.664 240.167L118.667 240.172L120.469 239.305ZM116.543 241.168L114.634 241.763L114.638 241.778L114.643 241.793L116.543 241.168ZM115.523 239.551L114.121 240.976L114.126 240.982L114.132 240.988L115.523 239.551ZM108 238.156L108.392 240.117L108.403 240.115L108.414 240.113L108 238.156ZM105.059 239.574L106.456 241.005L106.464 240.997L106.473 240.988L105.059 239.574ZM104.273 240.617L106.039 241.556L106.043 241.549L106.047 241.541L104.273 240.617ZM103.852 241.777L101.895 241.363L101.892 241.378L101.889 241.393L103.852 241.777ZM103.852 244.168L101.888 244.546L101.891 244.564L101.895 244.582L103.852 244.168ZM104.273 245.34L102.5 246.264L102.504 246.271L102.508 246.279L104.273 245.34ZM106.277 247.215L105.383 249.004L105.395 249.01L105.406 249.015L106.277 247.215ZM108 247.777L107.586 249.734L107.597 249.736L107.608 249.739L108 247.777ZM115.523 246.371L114.132 244.934L114.126 244.94L114.121 244.945L115.523 246.371ZM116.543 244.766L114.641 244.148L114.638 244.156L114.636 244.163L116.543 244.766ZM119.23 242.961C119.23 244.097 119.023 245.016 118.664 245.766L122.273 247.491C122.93 246.117 123.23 244.591 123.23 242.961H119.23ZM118.667 245.761C118.299 246.525 117.78 247.158 117.087 247.679L119.491 250.876C120.689 249.975 121.623 248.842 122.271 247.497L118.667 245.761ZM117.087 247.679C116.378 248.212 115.47 248.652 114.319 248.964L115.368 252.825C116.92 252.403 118.309 251.765 119.491 250.876L117.087 247.679ZM114.327 248.962C113.182 249.269 111.849 249.434 110.309 249.434V253.434C112.128 253.434 113.818 253.239 115.36 252.827L114.327 248.962ZM110.309 249.434C108.769 249.434 107.425 249.269 106.261 248.961L105.239 252.828C106.794 253.239 108.489 253.434 110.309 253.434V249.434ZM106.274 248.964C105.123 248.652 104.208 248.211 103.489 247.674L101.097 250.88C102.284 251.766 103.674 252.403 105.226 252.825L106.274 248.964ZM103.489 247.674C102.787 247.151 102.261 246.515 101.887 245.75L98.2931 247.507C98.9504 248.852 99.8923 249.982 101.097 250.88L103.489 247.674ZM101.889 245.756C101.526 245.008 101.316 244.093 101.316 242.961H97.3164C97.3164 244.595 97.6221 246.125 98.2905 247.502L101.889 245.756ZM101.316 242.961C101.316 241.829 101.526 240.92 101.887 240.183L98.2931 238.426C97.6219 239.799 97.3164 241.327 97.3164 242.961H101.316ZM101.889 240.178C102.264 239.406 102.791 238.768 103.489 238.248L101.097 235.041C99.8892 235.942 98.947 237.079 98.2905 238.431L101.889 240.178ZM103.489 238.248C104.205 237.713 105.116 237.277 106.264 236.972L105.236 233.106C103.681 233.52 102.287 234.154 101.097 235.041L103.489 238.248ZM106.272 236.97C107.432 236.656 108.772 236.488 110.309 236.488V232.488C108.486 232.488 106.787 232.687 105.228 233.108L106.272 236.97ZM110.309 236.488C111.845 236.488 113.176 236.657 114.317 236.968L115.371 233.11C113.824 232.687 112.131 232.488 110.309 232.488V236.488ZM114.33 236.972C115.477 237.277 116.381 237.712 117.087 238.243L119.491 235.046C118.306 234.155 116.913 233.52 115.358 233.106L114.33 236.972ZM117.087 238.243C117.776 238.761 118.296 239.396 118.664 240.167L122.273 238.442C121.626 237.088 120.692 235.949 119.491 235.046L117.087 238.243ZM118.667 240.172C119.023 240.912 119.23 241.825 119.23 242.961H123.23C123.23 241.332 122.93 239.807 122.271 238.437L118.667 240.172ZM118.836 242.961C118.836 242.139 118.702 241.331 118.443 240.543L114.643 241.793C114.775 242.193 114.836 242.58 114.836 242.961H118.836ZM118.452 240.573C118.157 239.624 117.626 238.802 116.915 238.114L114.132 240.988C114.405 241.252 114.554 241.508 114.634 241.763L118.452 240.573ZM116.926 238.125C116.177 237.388 115.232 236.869 114.195 236.504L112.867 240.277C113.518 240.506 113.901 240.76 114.121 240.976L116.926 238.125ZM114.195 236.504C113.064 236.106 111.745 235.945 110.309 235.945V239.945C111.481 239.945 112.311 240.081 112.867 240.277L114.195 236.504ZM110.309 235.945C109.332 235.945 108.418 236.023 107.586 236.2L108.414 240.113C108.91 240.008 109.535 239.945 110.309 239.945V235.945ZM107.608 236.195C106.811 236.354 106.06 236.591 105.383 236.93L107.172 240.508C107.463 240.362 107.861 240.224 108.392 240.117L107.608 236.195ZM105.383 236.93C104.738 237.253 104.147 237.657 103.644 238.16L106.473 240.988C106.626 240.835 106.848 240.669 107.172 240.508L105.383 236.93ZM103.662 238.143C103.195 238.599 102.801 239.115 102.5 239.693L106.047 241.541C106.137 241.369 106.266 241.19 106.456 241.005L103.662 238.143ZM102.508 239.678C102.225 240.21 102.02 240.774 101.895 241.363L105.808 242.191C105.855 241.968 105.932 241.759 106.039 241.556L102.508 239.678ZM101.889 241.393C101.787 241.913 101.734 242.436 101.734 242.961H105.734C105.734 242.704 105.76 242.439 105.814 242.162L101.889 241.393ZM101.734 242.961C101.734 243.491 101.786 244.02 101.888 244.546L105.816 243.79C105.76 243.504 105.734 243.228 105.734 242.961H101.734ZM101.895 244.582C102.019 245.169 102.222 245.731 102.5 246.264L106.047 244.416C105.934 244.199 105.856 243.98 105.808 243.754L101.895 244.582ZM102.508 246.279C102.809 246.846 103.201 247.353 103.662 247.802L106.456 244.94C106.26 244.749 106.128 244.568 106.039 244.401L102.508 246.279ZM103.662 247.802C104.162 248.29 104.746 248.685 105.383 249.004L107.172 245.426C106.84 245.26 106.612 245.092 106.456 244.94L103.662 247.802ZM105.406 249.015C106.068 249.335 106.803 249.568 107.586 249.734L108.414 245.821C107.869 245.705 107.455 245.563 107.148 245.415L105.406 249.015ZM107.608 249.739C108.432 249.903 109.338 249.977 110.309 249.977V245.977C109.529 245.977 108.896 245.917 108.392 245.816L107.608 249.739ZM110.309 249.977C111.745 249.977 113.064 249.816 114.195 249.418L112.867 245.645C112.311 245.841 111.481 245.977 110.309 245.977V249.977ZM114.195 249.418C115.232 249.053 116.177 248.534 116.926 247.797L114.121 244.945C113.901 245.162 113.518 245.416 112.867 245.645L114.195 249.418ZM116.915 247.808C117.621 247.124 118.153 246.309 118.45 245.368L114.636 244.163C114.558 244.409 114.41 244.665 114.132 244.934L116.915 247.808ZM118.445 245.383C118.702 244.593 118.836 243.783 118.836 242.961H114.836C114.836 243.342 114.775 243.736 114.641 244.148L118.445 245.383ZM129.539 234.898H131.539V232.898H129.539V234.898ZM129.539 236.668H127.539V240.3L130.608 238.358L129.539 236.668ZM130.781 235.918L129.792 234.18L129.786 234.183L129.779 234.187L130.781 235.918ZM132.246 235.215L131.508 233.356L131.499 233.36L132.246 235.215ZM133.945 234.699L134.376 236.652L134.386 236.65L134.395 236.648L133.945 234.699ZM137.719 234.711L137.165 236.633L137.179 236.637L137.193 236.64L137.719 234.711ZM139.055 235.273L137.995 236.969L138.015 236.982L138.036 236.995L139.055 235.273ZM140.027 236.047L138.555 237.4L138.564 237.41L138.573 237.42L140.027 236.047ZM140.719 236.891L139.076 238.031L140.181 239.622L141.806 238.569L140.719 236.891ZM145.664 234.664L146.041 236.628L146.054 236.626L146.067 236.623L145.664 234.664ZM150.082 234.898L149.415 236.784L149.421 236.786L150.082 234.898ZM153.293 237.711L151.458 238.507L151.464 238.52L151.47 238.534L153.293 237.711ZM153.727 251V253H155.727V251H153.727ZM149.379 251H147.379V253H149.379V251ZM148.641 238.52L147.309 240.011L147.322 240.023L147.335 240.034L148.641 238.52ZM147.855 238.086L147.253 239.993L147.26 239.995L147.267 239.997L147.855 238.086ZM141.562 240.055L140.412 238.419L139.372 239.15L139.593 240.402L141.562 240.055ZM141.609 240.523L139.611 240.61L139.613 240.654L139.617 240.697L141.609 240.523ZM141.633 251V253H143.633V251H141.633ZM137.285 251H135.285V253H137.285V251ZM137.086 239.211L135.253 240.01L135.256 240.019L135.26 240.028L137.086 239.211ZM136.535 238.473L135.26 240.013L135.273 240.024L135.286 240.034L136.535 238.473ZM135.738 238.074L135.182 239.995L135.212 240.004L135.242 240.012L135.738 238.074ZM133.5 238.121L132.999 236.185L132.991 236.187L133.5 238.121ZM132.141 238.613L131.308 236.795L131.297 236.8L132.141 238.613ZM130.793 239.363L129.704 237.686L129.697 237.69L129.69 237.695L130.793 239.363ZM129.539 240.301L128.25 238.772L127.539 239.371V240.301H129.539ZM129.539 251V253H131.539V251H129.539ZM125.191 251H123.191V253H125.191V251ZM125.191 234.898V232.898H123.191V234.898H125.191ZM127.539 234.898V236.668H131.539V234.898H127.539ZM130.608 238.358C130.966 238.132 131.358 237.895 131.783 237.649L129.779 234.187C129.314 234.456 128.877 234.72 128.47 234.978L130.608 238.358ZM131.77 237.656C132.14 237.446 132.546 237.25 132.994 237.07L131.499 233.36C130.899 233.601 130.329 233.874 129.792 234.18L131.77 237.656ZM132.984 237.074C133.408 236.905 133.872 236.764 134.376 236.652L133.514 232.746C132.816 232.9 132.146 233.103 131.508 233.356L132.984 237.074ZM134.395 236.648C134.84 236.545 135.344 236.488 135.914 236.488V232.488C135.078 232.488 134.269 232.572 133.496 232.75L134.395 236.648ZM135.914 236.488C136.464 236.488 136.872 236.548 137.165 236.633L138.272 232.789C137.534 232.577 136.739 232.488 135.914 232.488V236.488ZM137.193 236.64C137.558 236.74 137.816 236.857 137.995 236.969L140.115 233.577C139.544 233.221 138.911 232.963 138.245 232.781L137.193 236.64ZM138.036 236.995C138.272 237.134 138.438 237.273 138.555 237.4L141.5 234.694C141.086 234.243 140.603 233.866 140.073 233.552L138.036 236.995ZM138.573 237.42C138.779 237.638 138.944 237.842 139.076 238.031L142.361 235.75C142.102 235.377 141.807 235.018 141.481 234.674L138.573 237.42ZM141.806 238.569C142.324 238.234 142.83 237.93 143.324 237.658L141.395 234.154C140.811 234.476 140.223 234.829 139.631 235.212L141.806 238.569ZM143.324 237.658C143.788 237.403 144.249 237.187 144.708 237.011L143.269 233.279C142.633 233.523 142.009 233.816 141.395 234.154L143.324 237.658ZM144.708 237.011C145.145 236.842 145.589 236.715 146.041 236.628L145.287 232.7C144.599 232.832 143.926 233.025 143.269 233.279L144.708 237.011ZM146.067 236.623C146.497 236.535 146.955 236.488 147.445 236.488V232.488C146.701 232.488 145.972 232.559 145.262 232.705L146.067 236.623ZM147.445 236.488C148.247 236.488 148.894 236.6 149.415 236.784L150.749 233.013C149.723 232.65 148.613 232.488 147.445 232.488V236.488ZM149.421 236.786C149.995 236.987 150.42 237.241 150.738 237.522L153.387 234.525C152.627 233.853 151.732 233.357 150.743 233.011L149.421 236.786ZM150.738 237.522C151.062 237.808 151.296 238.132 151.458 238.507L155.128 236.915C154.728 235.993 154.142 235.192 153.387 234.525L150.738 237.522ZM151.47 238.534C151.637 238.904 151.727 239.31 151.727 239.773H155.727C155.727 238.768 155.527 237.799 155.116 236.888L151.47 238.534ZM151.727 239.773V251H155.727V239.773H151.727ZM153.727 249H149.379V253H153.727V249ZM151.379 251V240.395H147.379V251H151.379ZM151.379 240.395C151.379 239.765 151.282 239.115 151.02 238.499L147.339 240.064C147.343 240.072 147.379 240.165 147.379 240.395H151.379ZM151.02 238.499C150.784 237.943 150.435 237.426 149.947 237.005L147.335 240.034C147.328 240.028 147.322 240.023 147.318 240.018C147.314 240.014 147.313 240.012 147.313 240.012C147.313 240.012 147.323 240.027 147.339 240.064L151.02 238.499ZM149.973 237.028C149.521 236.624 148.999 236.345 148.444 236.174L147.267 239.997C147.297 240.007 147.311 240.014 147.313 240.015C147.316 240.017 147.313 240.015 147.309 240.011L149.973 237.028ZM148.458 236.179C147.951 236.019 147.43 235.945 146.906 235.945V239.945C147.054 239.945 147.166 239.966 147.253 239.993L148.458 236.179ZM146.906 235.945C144.759 235.945 142.573 236.9 140.412 238.419L142.713 241.691C144.552 240.397 145.929 239.945 146.906 239.945V235.945ZM139.593 240.402C139.597 240.426 139.606 240.491 139.611 240.61L143.607 240.437C143.597 240.196 143.575 239.949 143.532 239.707L139.593 240.402ZM139.617 240.697C139.628 240.819 139.633 240.941 139.633 241.062H143.633C143.633 240.825 143.622 240.587 143.602 240.35L139.617 240.697ZM139.633 241.062V251H143.633V241.062H139.633ZM141.633 249H137.285V253H141.633V249ZM139.285 251V240.301H135.285V251H139.285ZM139.285 240.301C139.285 239.676 139.19 239.016 138.912 238.394L135.26 240.028C135.248 239.999 135.285 240.066 135.285 240.301H139.285ZM138.919 238.412C138.671 237.842 138.299 237.322 137.785 236.911L135.286 240.034C135.277 240.027 135.269 240.02 135.261 240.012C135.254 240.005 135.249 239.998 135.246 239.994C135.238 239.984 135.242 239.987 135.253 240.01L138.919 238.412ZM137.81 236.932C137.341 236.544 136.805 236.283 136.235 236.137L135.242 240.012C135.253 240.015 135.261 240.017 135.266 240.019C135.27 240.021 135.272 240.021 135.272 240.021C135.271 240.021 135.27 240.02 135.267 240.019C135.264 240.017 135.262 240.015 135.26 240.013L137.81 236.932ZM136.294 236.153C135.802 236.011 135.297 235.945 134.789 235.945V239.945C134.953 239.945 135.081 239.966 135.182 239.995L136.294 236.153ZM134.789 235.945C134.191 235.945 133.592 236.032 132.999 236.185L134.001 240.057C134.315 239.976 134.575 239.945 134.789 239.945V235.945ZM132.991 236.187C132.424 236.336 131.863 236.541 131.308 236.795L132.973 240.432C133.34 240.264 133.685 240.141 134.009 240.055L132.991 236.187ZM131.297 236.8C130.754 237.053 130.223 237.349 129.704 237.686L131.882 241.041C132.254 240.8 132.621 240.596 132.985 240.426L131.297 236.8ZM129.69 237.695C129.188 238.026 128.708 238.385 128.25 238.772L130.828 241.83C131.167 241.544 131.522 241.278 131.895 241.032L129.69 237.695ZM127.539 240.301V251H131.539V240.301H127.539ZM129.539 249H125.191V253H129.539V249ZM127.191 251V234.898H123.191V251H127.191ZM125.191 236.898H129.539V232.898H125.191V236.898ZM158.707 251H156.707V253H158.707V251ZM158.707 234.898V232.898H156.707V234.898H158.707ZM163.055 234.898H165.055V232.898H163.055V234.898ZM163.055 251V253H165.055V251H163.055ZM160.707 251V234.898H156.707V251H160.707ZM158.707 236.898H163.055V232.898H158.707V236.898ZM161.055 234.898V251H165.055V234.898H161.055ZM163.055 249H158.707V253H163.055V249ZM183.445 251H181.445V253H183.445V251ZM183.293 240.348L181.334 240.752L181.336 240.758L183.293 240.348ZM182.719 239.094L181.14 240.322L181.155 240.341L181.171 240.36L182.719 239.094ZM181.559 238.285L180.821 240.144L180.839 240.151L180.856 240.158L181.559 238.285ZM177.773 238.238L178.242 240.183L178.25 240.181L178.259 240.179L177.773 238.238ZM174 239.797L172.971 238.082L172.961 238.088L174 239.797ZM172.453 240.898L171.162 239.371L170.453 239.97V240.898H172.453ZM172.453 251V253H174.453V251H172.453ZM168.105 251H166.105V253H168.105V251ZM168.105 234.898V232.898H166.105V234.898H168.105ZM172.453 234.898H174.453V232.898H172.453V234.898ZM172.453 237.102H170.453V240.548L173.445 238.838L172.453 237.102ZM174.199 236.176L175.085 237.969L175.094 237.965L175.103 237.96L174.199 236.176ZM183.762 234.887L183.166 236.796L183.177 236.799L183.187 236.802L183.762 234.887ZM185.941 236L184.677 237.55L184.683 237.555L184.69 237.56L185.941 236ZM187.301 237.746L185.48 238.574L185.486 238.586L185.492 238.599L187.301 237.746ZM187.781 251V253H189.781V251H187.781ZM185.445 251V241.977H181.445V251H185.445ZM185.445 241.977C185.445 241.265 185.386 240.582 185.25 239.937L181.336 240.758C181.404 241.082 181.445 241.485 181.445 241.977H185.445ZM185.252 239.943C185.094 239.177 184.778 238.452 184.267 237.827L181.171 240.36C181.222 240.423 181.289 240.534 181.334 240.752L185.252 239.943ZM184.297 237.866C183.756 237.169 183.038 236.704 182.261 236.412L180.856 240.158C181.08 240.242 181.135 240.315 181.14 240.322L184.297 237.866ZM182.296 236.426C181.486 236.104 180.573 235.992 179.648 235.992V239.992C180.286 239.992 180.647 240.075 180.821 240.144L182.296 236.426ZM179.648 235.992C178.87 235.992 178.082 236.1 177.288 236.298L178.259 240.179C178.778 240.049 179.239 239.992 179.648 239.992V235.992ZM177.305 236.294C176.551 236.476 175.807 236.72 175.074 237.024L176.606 240.719C177.154 240.491 177.699 240.313 178.242 240.183L177.305 236.294ZM175.074 237.024C174.344 237.326 173.642 237.679 172.971 238.082L175.029 241.512C175.529 241.212 176.055 240.947 176.606 240.719L175.074 237.024ZM172.961 238.088C172.306 238.486 171.705 238.913 171.162 239.371L173.744 242.426C174.108 242.119 174.537 241.811 175.039 241.506L172.961 238.088ZM170.453 240.898V251H174.453V240.898H170.453ZM172.453 249H168.105V253H172.453V249ZM170.105 251V234.898H166.105V251H170.105ZM168.105 236.898H172.453V232.898H168.105V236.898ZM170.453 234.898V237.102H174.453V234.898H170.453ZM173.445 238.838C173.954 238.547 174.5 238.258 175.085 237.969L173.314 234.382C172.664 234.703 172.046 235.031 171.461 235.365L173.445 238.838ZM175.103 237.96C175.642 237.687 176.222 237.438 176.845 237.214L175.491 233.45C174.724 233.726 173.991 234.039 173.296 234.391L175.103 237.96ZM176.845 237.214C177.44 237 178.083 236.822 178.775 236.684L177.991 232.761C177.12 232.936 176.286 233.164 175.491 233.45L176.845 237.214ZM178.775 236.684C179.416 236.556 180.109 236.488 180.855 236.488V232.488C179.868 232.488 178.912 232.577 177.991 232.761L178.775 236.684ZM180.855 236.488C181.782 236.488 182.544 236.602 183.166 236.796L184.357 232.977C183.276 232.64 182.101 232.488 180.855 232.488V236.488ZM183.187 236.802C183.837 236.997 184.319 237.257 184.677 237.55L187.206 234.45C186.377 233.774 185.405 233.292 184.336 232.971L183.187 236.802ZM184.69 237.56C185.041 237.842 185.298 238.174 185.48 238.574L189.122 236.918C188.678 235.943 188.029 235.111 187.193 234.44L184.69 237.56ZM185.492 238.599C185.672 238.981 185.781 239.446 185.781 240.031H189.781C189.781 238.929 189.571 237.871 189.11 236.893L185.492 238.599ZM185.781 240.031V251H189.781V240.031H185.781ZM187.781 249H183.445V253H187.781V249ZM207.527 234.898L207.131 236.859L207.144 236.861L207.527 234.898ZM211.266 235.93H213.266V234.54L211.964 234.055L211.266 235.93ZM211.266 239.867L210.287 241.611L213.266 243.284V239.867H211.266ZM209.754 239.141L208.975 240.983L208.985 240.987L209.754 239.141ZM197.449 239.621L198.814 241.083L198.822 241.075L198.831 241.067L197.449 239.621ZM196.172 244.004L194.199 244.333L194.202 244.353L194.206 244.372L196.172 244.004ZM196.547 245.129L194.743 245.993L194.751 246.008L194.758 246.023L196.547 245.129ZM198.598 247.121L197.693 248.905L197.703 248.91L198.598 247.121ZM200.508 247.766L200.076 249.718L200.086 249.721L200.096 249.723L200.508 247.766ZM205.547 247.824L205.21 245.853L205.202 245.854L205.547 247.824ZM206.438 247.625L205.902 245.698L205.895 245.7L205.888 245.702L206.438 247.625ZM207.305 247.379L207.861 249.3L209.305 248.882V247.379H207.305ZM207.305 245.434H209.305V243.434H207.305V245.434ZM202.43 245.434H200.43V247.434H202.43V245.434ZM202.43 241.906V239.906H200.43V241.906H202.43ZM211.652 241.906H213.652V239.906H211.652V241.906ZM211.652 250.133L212.292 252.028L213.652 251.568V250.133H211.652ZM209.707 250.672L210.136 252.625L210.144 252.624L210.152 252.622L209.707 250.672ZM207.492 251.07L207.209 249.09L207.198 249.092L207.187 249.094L207.492 251.07ZM197.285 250.578L196.616 252.463L196.626 252.467L196.637 252.47L197.285 250.578ZM194.988 249.453L193.888 251.123L193.896 251.129L194.988 249.453ZM193.219 247.836L191.638 249.061L191.643 249.067L191.647 249.073L193.219 247.836ZM192.082 245.691L190.181 246.313L190.185 246.324L190.188 246.335L192.082 245.691ZM193.277 238.086L191.725 236.825L191.72 236.831L191.716 236.837L193.277 238.086ZM195.094 236.469L194.019 234.782L194.01 234.788L195.094 236.469ZM197.426 235.355L198.074 237.248L198.084 237.244L197.426 235.355ZM200.145 234.699L199.857 232.72L199.855 232.72L200.145 234.699ZM203.133 236.488C204.596 236.488 205.927 236.615 207.131 236.859L207.924 232.938C206.425 232.635 204.825 232.488 203.133 232.488V236.488ZM207.144 236.861C208.411 237.109 209.551 237.425 210.568 237.804L211.964 234.055C210.715 233.59 209.362 233.219 207.911 232.936L207.144 236.861ZM209.266 235.93V239.867H213.266V235.93H209.266ZM212.245 238.123C211.72 237.829 211.144 237.553 210.523 237.294L208.985 240.987C209.489 241.197 209.921 241.406 210.287 241.611L212.245 238.123ZM210.532 237.298C209.887 237.025 209.196 236.791 208.466 236.591L207.409 240.449C207.991 240.608 208.512 240.787 208.975 240.983L210.532 237.298ZM208.466 236.591C207.722 236.387 206.939 236.227 206.117 236.107L205.54 240.065C206.218 240.164 206.84 240.293 207.409 240.449L208.466 236.591ZM206.117 236.107C205.263 235.982 204.377 235.922 203.461 235.922V239.922C204.201 239.922 204.893 239.971 205.54 240.065L206.117 236.107ZM203.461 235.922C202.34 235.922 201.309 236.002 200.385 236.181L201.146 240.108C201.754 239.99 202.519 239.922 203.461 239.922V235.922ZM200.385 236.181C199.507 236.351 198.691 236.591 197.965 236.923L199.628 240.561C199.996 240.393 200.493 240.235 201.146 240.108L200.385 236.181ZM197.965 236.923C197.262 237.245 196.613 237.653 196.068 238.175L198.831 241.067C198.988 240.917 199.238 240.739 199.628 240.561L197.965 236.923ZM196.085 238.159C195.595 238.616 195.177 239.136 194.859 239.723L198.376 241.628C198.464 241.466 198.6 241.282 198.814 241.083L196.085 238.159ZM194.859 239.723C194.567 240.261 194.354 240.832 194.234 241.432L198.156 242.216C198.193 242.035 198.261 241.84 198.376 241.628L194.859 239.723ZM194.234 241.432C194.132 241.941 194.078 242.451 194.078 242.961H198.078C198.078 242.736 198.102 242.489 198.156 242.216L194.234 241.432ZM194.078 242.961C194.078 243.41 194.122 243.869 194.199 244.333L198.145 243.675C198.097 243.389 198.078 243.153 198.078 242.961H194.078ZM194.206 244.372C194.311 244.934 194.495 245.475 194.743 245.993L198.351 244.265C198.24 244.033 198.173 243.824 198.138 243.635L194.206 244.372ZM194.758 246.023C195.046 246.599 195.426 247.119 195.874 247.588L198.767 244.826C198.558 244.608 198.423 244.409 198.336 244.234L194.758 246.023ZM195.874 247.588C196.39 248.129 197.013 248.56 197.693 248.905L199.503 245.338C199.136 245.151 198.907 244.973 198.767 244.826L195.874 247.588ZM197.703 248.91C198.416 249.266 199.216 249.528 200.076 249.718L200.939 245.813C200.315 245.675 199.842 245.507 199.492 245.332L197.703 248.91ZM200.096 249.723C201.011 249.915 202.039 250 203.156 250V246C202.227 246 201.489 245.928 200.92 245.809L200.096 249.723ZM203.156 250C203.709 250 204.215 249.983 204.667 249.946L204.341 245.96C204.027 245.985 203.635 246 203.156 246V250ZM204.667 249.946C205.098 249.911 205.508 249.861 205.892 249.794L205.202 245.854C204.961 245.896 204.675 245.932 204.341 245.96L204.667 249.946ZM205.883 249.796C206.266 249.73 206.634 249.649 206.987 249.548L205.888 245.702C205.694 245.757 205.469 245.809 205.21 245.853L205.883 249.796ZM206.973 249.552C207.261 249.472 207.557 249.388 207.861 249.3L206.749 245.458C206.458 245.542 206.176 245.622 205.902 245.698L206.973 249.552ZM209.305 247.379V245.434H205.305V247.379H209.305ZM207.305 243.434H202.43V247.434H207.305V243.434ZM204.43 245.434V241.906H200.43V245.434H204.43ZM202.43 243.906H211.652V239.906H202.43V243.906ZM209.652 241.906V250.133H213.652V241.906H209.652ZM211.012 248.238C210.51 248.408 209.928 248.57 209.262 248.722L210.152 252.622C210.924 252.446 211.639 252.248 212.292 252.028L211.012 248.238ZM209.278 248.718C208.618 248.863 207.929 248.988 207.209 249.09L207.775 253.05C208.587 252.934 209.374 252.793 210.136 252.625L209.278 248.718ZM207.187 249.094C206.476 249.204 205.762 249.288 205.044 249.346L205.37 253.333C206.183 253.267 206.993 253.171 207.798 253.047L207.187 249.094ZM205.044 249.346C204.326 249.405 203.658 249.434 203.039 249.434V253.434C203.78 253.434 204.557 253.4 205.37 253.333L205.044 249.346ZM203.039 249.434C202.073 249.434 201.158 249.369 200.291 249.243L199.717 253.202C200.787 253.357 201.896 253.434 203.039 253.434V249.434ZM200.291 249.243C199.433 249.119 198.649 248.931 197.933 248.686L196.637 252.47C197.609 252.803 198.637 253.045 199.717 253.202L200.291 249.243ZM197.954 248.693C197.257 248.446 196.635 248.139 196.08 247.778L193.896 251.129C194.733 251.674 195.641 252.117 196.616 252.463L197.954 248.693ZM196.089 247.783C195.574 247.444 195.145 247.049 194.79 246.599L191.647 249.073C192.277 249.873 193.027 250.556 193.888 251.123L196.089 247.783ZM194.8 246.611C194.461 246.174 194.183 245.658 193.976 245.048L190.188 246.335C190.528 247.334 191.008 248.248 191.638 249.061L194.8 246.611ZM193.983 245.07C193.794 244.49 193.684 243.794 193.684 242.961H189.684C189.684 244.143 189.839 245.268 190.181 246.313L193.983 245.07ZM193.684 242.961C193.684 242.148 193.798 241.467 193.995 240.896L190.215 239.588C189.851 240.642 189.684 241.774 189.684 242.961H193.684ZM193.995 240.896C194.208 240.284 194.492 239.769 194.839 239.335L191.716 236.837C191.063 237.653 190.566 238.576 190.215 239.588L193.995 240.896ZM194.83 239.347C195.199 238.892 195.645 238.493 196.177 238.15L194.01 234.788C193.137 235.351 192.371 236.03 191.725 236.825L194.83 239.347ZM196.169 238.155C196.739 237.792 197.371 237.488 198.074 237.248L196.778 233.463C195.793 233.801 194.871 234.239 194.019 234.782L196.169 238.155ZM198.084 237.244C198.807 236.992 199.589 236.802 200.434 236.678L199.855 232.72C198.778 232.878 197.748 233.125 196.767 233.467L198.084 237.244ZM200.432 236.678C201.301 236.552 202.201 236.488 203.133 236.488V232.488C202.018 232.488 200.925 232.565 199.857 232.72L200.432 236.678ZM240.199 239.434L239.323 241.232L242.199 242.633V239.434H240.199ZM237.293 238.402L236.769 240.332L236.78 240.335L236.791 240.338L237.293 238.402ZM235.23 237.98L234.919 239.956L234.929 239.958L234.939 239.959L235.23 237.98ZM231.34 237.863L231.165 235.871L231.162 235.871L231.34 237.863ZM230.227 238.016L229.825 236.056L229.815 236.059L230.227 238.016ZM229.512 238.238L230.339 240.059L230.357 240.051L230.375 240.043L229.512 238.238ZM228.926 238.742L227.046 238.059L227.018 238.136L226.996 238.216L228.926 238.742ZM229.242 239.598L228.025 241.185L228.042 241.198L228.059 241.21L229.242 239.598ZM230.203 240.066L229.549 241.956L229.565 241.962L229.582 241.967L230.203 240.066ZM231.621 240.453L231.169 242.401L231.183 242.405L231.196 242.407L231.621 240.453ZM233.332 240.828L232.901 242.781L232.915 242.784L232.93 242.787L233.332 240.828ZM235.207 241.25L234.733 243.193L234.747 243.196L234.761 243.2L235.207 241.25ZM237.082 241.777L236.442 243.672L236.45 243.675L237.082 241.777ZM238.805 242.492L237.9 244.276L237.91 244.281L237.921 244.286L238.805 242.492ZM240.023 249.676L238.746 248.137L238.739 248.143L238.733 248.148L240.023 249.676ZM238.441 250.602L239.146 252.473L239.157 252.469L239.167 252.465L238.441 250.602ZM236.543 251.129L236.173 249.163L236.169 249.164L236.543 251.129ZM234.539 251.375L234.424 249.378L234.423 249.378L234.539 251.375ZM228.188 251.035L228.571 249.072L228.562 249.071L228.188 251.035ZM224.602 250.062H222.602V251.447L223.898 251.935L224.602 250.062ZM224.602 246.219L225.572 244.47L222.602 242.822V246.219H224.602ZM228.258 247.613L227.781 249.556L227.783 249.556L228.258 247.613ZM234.914 247.977L235.234 249.951L235.245 249.949L235.256 249.947L234.914 247.977ZM236.285 247.602L237.109 249.424L237.127 249.416L237.145 249.407L236.285 247.602ZM236.777 245.914L235.497 247.451L235.512 247.463L235.528 247.476L236.777 245.914ZM235.816 245.41L235.13 247.289L235.146 247.295L235.162 247.3L235.816 245.41ZM234.398 245.012L233.947 246.96L233.96 246.963L233.974 246.966L234.398 245.012ZM232.676 244.648L232.269 246.607L232.283 246.61L232.298 246.612L232.676 244.648ZM228.938 243.758L228.32 245.66L228.335 245.665L228.349 245.669L228.938 243.758ZM227.227 243.09L226.364 244.894L226.374 244.899L226.385 244.904L227.227 243.09ZM225.809 242.188L224.5 243.7L224.508 243.707L224.517 243.714L225.809 242.188ZM224.848 240.98L223.065 241.887L223.071 241.899L224.848 240.98ZM225.879 236.234L227.176 237.757L227.178 237.755L225.879 236.234ZM227.355 235.344L226.608 233.489L226.599 233.492L227.355 235.344ZM234.727 234.582L234.537 236.573L234.539 236.573L234.727 234.582ZM236.684 234.852L236.324 236.819L236.335 236.821L236.347 236.823L236.684 234.852ZM238.535 235.238L238.05 237.179L238.056 237.18L238.535 235.238ZM240.199 235.707H242.199V234.251L240.814 233.804L240.199 235.707ZM241.075 237.636C240.691 237.449 240.224 237.256 239.694 237.057L238.29 240.802C238.76 240.979 239.098 241.122 239.323 241.232L241.075 237.636ZM239.694 237.057C239.116 236.84 238.481 236.644 237.795 236.466L236.791 240.338C237.37 240.489 237.868 240.644 238.29 240.802L239.694 237.057ZM237.817 236.472C237.098 236.277 236.332 236.121 235.522 236.002L234.939 239.959C235.614 240.059 236.222 240.184 236.769 240.332L237.817 236.472ZM235.542 236.005C234.693 235.871 233.827 235.805 232.945 235.805V239.805C233.626 239.805 234.284 239.856 234.919 239.956L235.542 236.005ZM232.945 235.805C232.283 235.805 231.686 235.825 231.165 235.871L231.515 239.856C231.884 239.823 232.358 239.805 232.945 239.805V235.805ZM231.162 235.871C230.677 235.914 230.227 235.974 229.825 236.056L230.628 239.975C230.836 239.932 231.127 239.89 231.518 239.855L231.162 235.871ZM229.815 236.059C229.434 236.139 229.026 236.254 228.649 236.434L230.375 240.043C230.359 240.05 230.371 240.043 230.42 240.028C230.468 240.013 230.539 239.994 230.639 239.973L229.815 236.059ZM228.684 236.418C228.404 236.545 228.067 236.731 227.762 237.01L230.465 239.959C230.401 240.017 230.352 240.049 230.334 240.06C230.316 240.071 230.315 240.07 230.339 240.059L228.684 236.418ZM227.762 237.01C227.519 237.233 227.222 237.576 227.046 238.059L230.805 239.426C230.692 239.737 230.521 239.908 230.465 239.959L227.762 237.01ZM226.996 238.216C226.938 238.43 226.891 238.689 226.891 238.977H230.891C230.891 239.124 230.867 239.226 230.855 239.268L226.996 238.216ZM226.891 238.977C226.891 239.992 227.439 240.735 228.025 241.185L230.459 238.01C230.505 238.046 230.617 238.143 230.719 238.322C230.828 238.515 230.891 238.743 230.891 238.977H226.891ZM228.059 241.21C228.512 241.543 229.035 241.779 229.549 241.956L230.857 238.176C230.715 238.127 230.61 238.083 230.535 238.046C230.498 238.028 230.471 238.013 230.452 238.002C230.443 237.997 230.436 237.992 230.432 237.989C230.429 237.988 230.428 237.987 230.427 237.986C230.425 237.985 230.425 237.985 230.425 237.985L228.059 241.21ZM229.582 241.967C230.057 242.123 230.589 242.267 231.169 242.401L232.073 238.505C231.575 238.389 231.162 238.276 230.825 238.165L229.582 241.967ZM231.196 242.407C231.733 242.524 232.301 242.649 232.901 242.781L233.763 238.875C233.16 238.742 232.587 238.616 232.046 238.499L231.196 242.407ZM232.93 242.787C233.514 242.907 234.115 243.042 234.733 243.193L235.681 239.307C235.018 239.145 234.369 238.999 233.734 238.869L232.93 242.787ZM234.761 243.2C235.347 243.334 235.907 243.492 236.442 243.672L237.722 239.882C237.054 239.657 236.364 239.463 235.653 239.3L234.761 243.2ZM236.45 243.675C236.971 243.849 237.454 244.05 237.9 244.276L239.709 240.709C239.077 240.388 238.412 240.112 237.714 239.88L236.45 243.675ZM237.921 244.286C238.317 244.482 238.638 244.698 238.898 244.928L241.548 241.932C240.995 241.443 240.37 241.034 239.689 240.698L237.921 244.286ZM238.898 244.928C239.119 245.123 239.279 245.335 239.395 245.566L242.972 243.777C242.62 243.072 242.139 242.455 241.548 241.932L238.898 244.928ZM239.395 245.566C239.471 245.719 239.535 245.94 239.535 246.277H243.535C243.535 245.411 243.365 244.562 242.972 243.777L239.395 245.566ZM239.535 246.277C239.535 246.819 239.439 247.166 239.331 247.385L242.919 249.154C243.358 248.264 243.535 247.282 243.535 246.277H239.535ZM239.331 247.385C239.178 247.696 238.984 247.94 238.746 248.137L241.301 251.214C241.985 250.646 242.525 249.952 242.919 249.154L239.331 247.385ZM238.733 248.148C238.462 248.377 238.13 248.577 237.715 248.738L239.167 252.465C239.956 252.158 240.678 251.741 241.314 251.204L238.733 248.148ZM237.736 248.73C237.249 248.913 236.729 249.059 236.173 249.163L236.913 253.094C237.685 252.949 238.431 252.743 239.146 252.473L237.736 248.73ZM236.169 249.164C235.6 249.273 235.019 249.344 234.424 249.378L234.654 253.372C235.419 253.328 236.174 253.235 236.917 253.094L236.169 249.164ZM234.423 249.378C233.786 249.415 233.184 249.434 232.617 249.434V253.434C233.269 253.434 233.949 253.413 234.655 253.372L234.423 249.378ZM232.617 249.434C231.133 249.434 229.787 249.31 228.571 249.072L227.804 252.998C229.307 253.292 230.913 253.434 232.617 253.434V249.434ZM228.562 249.071C227.297 248.829 226.216 248.533 225.305 248.19L223.898 251.935C225.065 252.374 226.374 252.725 227.813 253L228.562 249.071ZM226.602 250.062V246.219H222.602V250.062H226.602ZM223.631 247.968C224.878 248.659 226.266 249.183 227.781 249.556L228.735 245.671C227.515 245.371 226.466 244.966 225.572 244.47L223.631 247.968ZM227.783 249.556C229.329 249.934 230.958 250.117 232.664 250.117V246.117C231.245 246.117 229.937 245.965 228.732 245.67L227.783 249.556ZM232.664 250.117C233.64 250.117 234.508 250.069 235.234 249.951L234.594 246.002C234.164 246.072 233.532 246.117 232.664 246.117V250.117ZM235.256 249.947C235.915 249.833 236.56 249.672 237.109 249.424L235.461 245.779C235.354 245.828 235.085 245.917 234.572 246.006L235.256 249.947ZM237.145 249.407C237.601 249.19 238.215 248.824 238.628 248.19L235.278 246.005C235.377 245.853 235.473 245.778 235.494 245.762C235.517 245.745 235.502 245.759 235.425 245.796L237.145 249.407ZM238.628 248.19C238.893 247.784 239.129 247.237 239.129 246.582H235.129C235.129 246.255 235.247 246.052 235.278 246.005L238.628 248.19ZM239.129 246.582C239.129 245.613 238.648 244.849 238.027 244.352L235.528 247.476C235.471 247.43 235.363 247.328 235.271 247.153C235.175 246.97 235.129 246.769 235.129 246.582H239.129ZM238.058 244.378C237.579 243.978 237.019 243.71 236.471 243.52L235.162 247.3C235.288 247.344 235.375 247.383 235.433 247.413C235.49 247.443 235.506 247.458 235.497 247.451L238.058 244.378ZM236.503 243.532C235.992 243.345 235.428 243.189 234.823 243.057L233.974 246.966C234.447 247.069 234.829 247.179 235.13 247.289L236.503 243.532ZM234.85 243.063C234.284 242.932 233.685 242.806 233.053 242.684L232.298 246.612C232.886 246.725 233.435 246.841 233.947 246.96L234.85 243.063ZM233.083 242.69C232.489 242.567 231.875 242.436 231.241 242.297L230.384 246.203C231.031 246.346 231.66 246.48 232.269 246.607L233.083 242.69ZM231.241 242.297C230.653 242.167 230.081 242.017 229.526 241.846L228.349 245.669C229.013 245.873 229.691 246.051 230.384 246.203L231.241 242.297ZM229.555 241.856C229.025 241.683 228.53 241.49 228.068 241.275L226.385 244.904C227.001 245.19 227.647 245.442 228.32 245.66L229.555 241.856ZM228.089 241.286C227.686 241.093 227.361 240.881 227.1 240.661L224.517 243.714C225.068 244.181 225.689 244.571 226.364 244.894L228.089 241.286ZM227.117 240.675C226.893 240.481 226.736 240.277 226.624 240.062L223.071 241.899C223.428 242.59 223.912 243.191 224.5 243.7L227.117 240.675ZM226.63 240.074C226.56 239.936 226.496 239.725 226.496 239.387H222.496C222.496 240.252 222.666 241.103 223.065 241.887L226.63 240.074ZM226.496 239.387C226.496 238.907 226.58 238.606 226.671 238.419L223.071 236.674C222.662 237.519 222.496 238.445 222.496 239.387H226.496ZM226.671 238.419C226.804 238.144 226.972 237.931 227.176 237.757L224.582 234.712C223.942 235.257 223.438 235.918 223.071 236.674L226.671 238.419ZM227.178 237.755C227.436 237.534 227.743 237.346 228.112 237.195L226.599 233.492C225.859 233.795 225.181 234.2 224.58 234.714L227.178 237.755ZM228.103 237.199C228.548 237.02 229.02 236.878 229.522 236.777L228.728 232.856C227.996 233.005 227.288 233.215 226.608 233.489L228.103 237.199ZM229.522 236.777C230.056 236.668 230.598 236.594 231.148 236.553L230.852 232.564C230.136 232.617 229.428 232.714 228.728 232.856L229.522 236.777ZM231.148 236.553C231.737 236.509 232.289 236.488 232.805 236.488V232.488C232.18 232.488 231.529 232.514 230.852 232.564L231.148 236.553ZM232.805 236.488C233.363 236.488 233.94 236.516 234.537 236.573L234.916 232.591C234.2 232.523 233.496 232.488 232.805 232.488V236.488ZM234.539 236.573C235.147 236.63 235.742 236.712 236.324 236.819L237.043 232.884C236.344 232.756 235.634 232.659 234.914 232.591L234.539 236.573ZM236.347 236.823C236.941 236.924 237.508 237.043 238.05 237.179L239.02 233.298C238.374 233.137 237.708 232.997 237.02 232.88L236.347 236.823ZM238.056 237.18C238.619 237.319 239.128 237.463 239.584 237.61L240.814 233.804C240.255 233.623 239.654 233.454 239.014 233.297L238.056 237.18ZM238.199 235.707V239.434H242.199V235.707H238.199ZM265.734 246.629L267.536 247.497L267.539 247.491L265.734 246.629ZM260.109 250.895L260.626 252.827L260.634 252.825L260.109 250.895ZM251.016 250.895L250.491 252.825L250.504 252.828L251.016 250.895ZM245.355 246.629L243.556 247.502L243.559 247.507L245.355 246.629ZM245.355 239.305L247.152 240.183L247.155 240.178L245.355 239.305ZM251.016 235.039L251.53 236.972L251.537 236.97L251.016 235.039ZM260.109 235.039L259.582 236.968L259.595 236.972L260.109 235.039ZM265.734 239.305L263.93 240.167L263.932 240.172L265.734 239.305ZM261.809 241.168L259.899 241.763L259.904 241.778L259.909 241.793L261.809 241.168ZM260.789 239.551L259.386 240.976L259.392 240.982L259.398 240.988L260.789 239.551ZM253.266 238.156L253.658 240.117L253.669 240.115L253.68 240.113L253.266 238.156ZM250.324 239.574L251.721 241.005L251.73 240.997L251.738 240.988L250.324 239.574ZM249.539 240.617L251.305 241.556L251.309 241.549L251.313 241.541L249.539 240.617ZM249.117 241.777L247.16 241.363L247.157 241.378L247.155 241.393L249.117 241.777ZM249.117 244.168L247.153 244.546L247.157 244.564L247.16 244.582L249.117 244.168ZM249.539 245.34L247.765 246.264L247.769 246.271L247.773 246.279L249.539 245.34ZM251.543 247.215L250.649 249.004L250.66 249.01L250.672 249.015L251.543 247.215ZM253.266 247.777L252.851 249.734L252.862 249.736L252.873 249.739L253.266 247.777ZM260.789 246.371L259.398 244.934L259.392 244.94L259.386 244.945L260.789 246.371ZM261.809 244.766L259.906 244.148L259.904 244.156L259.901 244.163L261.809 244.766ZM264.496 242.961C264.496 244.097 264.288 245.016 263.93 245.766L267.539 247.491C268.196 246.117 268.496 244.591 268.496 242.961H264.496ZM263.932 245.761C263.565 246.525 263.045 247.158 262.353 247.679L264.757 250.876C265.955 249.975 266.888 248.842 267.536 247.497L263.932 245.761ZM262.353 247.679C261.644 248.212 260.736 248.652 259.585 248.964L260.634 252.825C262.186 252.403 263.575 251.765 264.757 250.876L262.353 247.679ZM259.593 248.962C258.448 249.269 257.114 249.434 255.574 249.434V253.434C257.394 253.434 259.083 253.239 260.626 252.827L259.593 248.962ZM255.574 249.434C254.035 249.434 252.691 249.269 251.527 248.961L250.504 252.828C252.059 253.239 253.754 253.434 255.574 253.434V249.434ZM251.54 248.964C250.388 248.652 249.474 248.211 248.754 247.674L246.363 250.88C247.55 251.766 248.94 252.403 250.491 252.825L251.54 248.964ZM248.754 247.674C248.053 247.151 247.526 246.515 247.152 245.75L243.559 247.507C244.216 248.852 245.158 249.982 246.363 250.88L248.754 247.674ZM247.155 245.756C246.792 245.008 246.582 244.093 246.582 242.961H242.582C242.582 244.595 242.888 246.125 243.556 247.502L247.155 245.756ZM246.582 242.961C246.582 241.829 246.792 240.92 247.152 240.183L243.559 238.426C242.888 239.799 242.582 241.327 242.582 242.961H246.582ZM247.155 240.178C247.53 239.406 248.056 238.768 248.754 238.248L246.363 235.041C245.155 235.942 244.213 237.079 243.556 238.431L247.155 240.178ZM248.754 238.248C249.471 237.713 250.382 237.277 251.53 236.972L250.502 233.106C248.947 233.52 247.553 234.154 246.363 235.041L248.754 238.248ZM251.537 236.97C252.698 236.656 254.038 236.488 255.574 236.488V232.488C253.751 232.488 252.052 232.687 250.494 233.108L251.537 236.97ZM255.574 236.488C257.111 236.488 258.441 236.657 259.582 236.968L260.637 233.11C259.09 232.687 257.397 232.488 255.574 232.488V236.488ZM259.595 236.972C260.743 237.277 261.647 237.712 262.353 238.243L264.757 235.046C263.572 234.155 262.179 233.52 260.623 233.106L259.595 236.972ZM262.353 238.243C263.042 238.761 263.561 239.396 263.93 240.167L267.539 238.442C266.892 237.088 265.958 235.949 264.757 235.046L262.353 238.243ZM263.932 240.172C264.288 240.912 264.496 241.825 264.496 242.961H268.496C268.496 241.332 268.196 239.807 267.536 238.437L263.932 240.172ZM264.102 242.961C264.102 242.139 263.967 241.331 263.708 240.543L259.909 241.793C260.04 242.193 260.102 242.58 260.102 242.961H264.102ZM263.718 240.573C263.422 239.624 262.891 238.802 262.18 238.114L259.398 240.988C259.671 241.252 259.82 241.508 259.899 241.763L263.718 240.573ZM262.192 238.125C261.443 237.388 260.498 236.869 259.461 236.504L258.133 240.277C258.783 240.506 259.167 240.76 259.386 240.976L262.192 238.125ZM259.461 236.504C258.33 236.106 257.011 235.945 255.574 235.945V239.945C256.747 239.945 257.576 240.081 258.133 240.277L259.461 236.504ZM255.574 235.945C254.598 235.945 253.684 236.023 252.851 236.2L253.68 240.113C254.175 240.008 254.801 239.945 255.574 239.945V235.945ZM252.873 236.195C252.077 236.354 251.326 236.591 250.649 236.93L252.437 240.508C252.729 240.362 253.127 240.224 253.658 240.117L252.873 236.195ZM250.649 236.93C250.003 237.253 249.413 237.657 248.91 238.16L251.738 240.988C251.892 240.835 252.114 240.669 252.437 240.508L250.649 236.93ZM248.927 238.143C248.46 238.599 248.066 239.115 247.765 239.693L251.313 241.541C251.402 241.369 251.532 241.19 251.721 241.005L248.927 238.143ZM247.773 239.678C247.49 240.21 247.285 240.774 247.16 241.363L251.074 242.191C251.121 241.968 251.197 241.759 251.305 241.556L247.773 239.678ZM247.155 241.393C247.053 241.913 247 242.436 247 242.961H251C251 242.704 251.026 242.439 251.08 242.162L247.155 241.393ZM247 242.961C247 243.491 247.052 244.02 247.153 244.546L251.081 243.79C251.026 243.504 251 243.228 251 242.961H247ZM247.16 244.582C247.285 245.169 247.488 245.731 247.765 246.264L251.313 244.416C251.2 244.199 251.122 243.98 251.074 243.754L247.16 244.582ZM247.773 246.279C248.075 246.846 248.467 247.353 248.927 247.802L251.721 244.94C251.526 244.749 251.394 244.568 251.305 244.401L247.773 246.279ZM248.927 247.802C249.427 248.29 250.012 248.685 250.649 249.004L252.437 245.426C252.105 245.26 251.877 245.092 251.721 244.94L248.927 247.802ZM250.672 249.015C251.334 249.335 252.068 249.568 252.851 249.734L253.68 245.821C253.135 245.705 252.721 245.563 252.414 245.415L250.672 249.015ZM252.873 249.739C253.698 249.903 254.603 249.977 255.574 249.977V245.977C254.795 245.977 254.162 245.917 253.658 245.816L252.873 249.739ZM255.574 249.977C257.011 249.977 258.33 249.816 259.461 249.418L258.133 245.645C257.576 245.841 256.747 245.977 255.574 245.977V249.977ZM259.461 249.418C260.498 249.053 261.443 248.534 262.192 247.797L259.386 244.945C259.167 245.162 258.783 245.416 258.133 245.645L259.461 249.418ZM262.18 247.808C262.887 247.124 263.418 246.309 263.716 245.368L259.901 244.163C259.824 244.409 259.676 244.665 259.398 244.934L262.18 247.808ZM263.711 245.383C263.968 244.593 264.102 243.783 264.102 242.961H260.102C260.102 243.342 260.04 243.736 259.906 244.148L263.711 245.383ZM290.531 246.629L292.333 247.497L292.336 247.491L290.531 246.629ZM284.906 250.895L285.423 252.827L285.431 252.825L284.906 250.895ZM275.812 250.895L275.288 252.825L275.301 252.828L275.812 250.895ZM270.152 246.629L268.353 247.502L268.356 247.507L270.152 246.629ZM270.152 239.305L271.949 240.183L271.952 240.178L270.152 239.305ZM275.812 235.039L276.326 236.972L276.334 236.97L275.812 235.039ZM284.906 235.039L284.379 236.968L284.392 236.972L284.906 235.039ZM290.531 239.305L288.727 240.167L288.729 240.172L290.531 239.305ZM286.605 241.168L284.696 241.763L284.701 241.778L284.706 241.793L286.605 241.168ZM285.586 239.551L284.183 240.976L284.189 240.982L284.195 240.988L285.586 239.551ZM278.062 238.156L278.455 240.117L278.466 240.115L278.477 240.113L278.062 238.156ZM275.121 239.574L276.518 241.005L276.527 240.997L276.535 240.988L275.121 239.574ZM274.336 240.617L276.102 241.556L276.106 241.549L276.11 241.541L274.336 240.617ZM273.914 241.777L271.957 241.363L271.954 241.378L271.951 241.393L273.914 241.777ZM273.914 244.168L271.95 244.546L271.954 244.564L271.957 244.582L273.914 244.168ZM274.336 245.34L272.562 246.264L272.566 246.271L272.57 246.279L274.336 245.34ZM276.34 247.215L275.445 249.004L275.457 249.01L275.469 249.015L276.34 247.215ZM278.062 247.777L277.648 249.734L277.659 249.736L277.67 249.739L278.062 247.777ZM285.586 246.371L284.195 244.934L284.189 244.94L284.183 244.945L285.586 246.371ZM286.605 244.766L284.703 244.148L284.701 244.156L284.698 244.163L286.605 244.766ZM289.293 242.961C289.293 244.097 289.085 245.016 288.727 245.766L292.336 247.491C292.993 246.117 293.293 244.591 293.293 242.961H289.293ZM288.729 245.761C288.362 246.525 287.842 247.158 287.149 247.679L289.554 250.876C290.752 249.975 291.685 248.842 292.333 247.497L288.729 245.761ZM287.149 247.679C286.441 248.212 285.533 248.652 284.382 248.964L285.431 252.825C286.983 252.403 288.372 251.765 289.554 250.876L287.149 247.679ZM284.39 248.962C283.245 249.269 281.911 249.434 280.371 249.434V253.434C282.19 253.434 283.88 253.239 285.423 252.827L284.39 248.962ZM280.371 249.434C278.832 249.434 277.488 249.269 276.324 248.961L275.301 252.828C276.856 253.239 278.551 253.434 280.371 253.434V249.434ZM276.337 248.964C275.185 248.652 274.271 248.211 273.551 247.674L271.16 250.88C272.346 251.766 273.737 252.403 275.288 252.825L276.337 248.964ZM273.551 247.674C272.85 247.151 272.323 246.515 271.949 245.75L268.356 247.507C269.013 248.852 269.955 249.982 271.16 250.88L273.551 247.674ZM271.952 245.756C271.589 245.008 271.379 244.093 271.379 242.961H267.379C267.379 244.595 267.685 246.125 268.353 247.502L271.952 245.756ZM271.379 242.961C271.379 241.829 271.589 240.92 271.949 240.183L268.356 238.426C267.684 239.799 267.379 241.327 267.379 242.961H271.379ZM271.952 240.178C272.326 239.406 272.853 238.768 273.551 238.248L271.16 235.041C269.952 235.942 269.009 237.079 268.353 238.431L271.952 240.178ZM273.551 238.248C274.268 237.713 275.178 237.277 276.326 236.972L275.299 233.106C273.743 233.52 272.35 234.154 271.16 235.041L273.551 238.248ZM276.334 236.97C277.494 236.656 278.835 236.488 280.371 236.488V232.488C278.548 232.488 276.849 232.687 275.291 233.108L276.334 236.97ZM280.371 236.488C281.908 236.488 283.238 236.657 284.379 236.968L285.433 233.11C283.887 232.687 282.194 232.488 280.371 232.488V236.488ZM284.392 236.972C285.54 237.277 286.444 237.712 287.149 238.243L289.554 235.046C288.369 234.155 286.976 233.52 285.42 233.106L284.392 236.972ZM287.149 238.243C287.839 238.761 288.358 239.396 288.727 240.167L292.336 238.442C291.689 237.088 290.755 235.949 289.554 235.046L287.149 238.243ZM288.729 240.172C289.085 240.912 289.293 241.825 289.293 242.961H293.293C293.293 241.332 292.993 239.807 292.333 238.437L288.729 240.172ZM288.898 242.961C288.898 242.139 288.764 241.331 288.505 240.543L284.706 241.793C284.837 242.193 284.898 242.58 284.898 242.961H288.898ZM288.515 240.573C288.219 239.624 287.688 238.802 286.977 238.114L284.195 240.988C284.468 241.252 284.617 241.508 284.696 241.763L288.515 240.573ZM286.989 238.125C286.24 237.388 285.295 236.869 284.258 236.504L282.93 240.277C283.58 240.506 283.964 240.76 284.183 240.976L286.989 238.125ZM284.258 236.504C283.127 236.106 281.808 235.945 280.371 235.945V239.945C281.544 239.945 282.373 240.081 282.93 240.277L284.258 236.504ZM280.371 235.945C279.395 235.945 278.481 236.023 277.648 236.2L278.477 240.113C278.972 240.008 279.598 239.945 280.371 239.945V235.945ZM277.67 236.195C276.873 236.354 276.123 236.591 275.445 236.93L277.234 240.508C277.526 240.362 277.923 240.224 278.455 240.117L277.67 236.195ZM275.445 236.93C274.8 237.253 274.21 237.657 273.707 238.16L276.535 240.988C276.688 240.835 276.911 240.669 277.234 240.508L275.445 236.93ZM273.724 238.143C273.257 238.599 272.863 239.115 272.562 239.693L276.11 241.541C276.199 241.369 276.329 241.19 276.518 241.005L273.724 238.143ZM272.57 239.678C272.287 240.21 272.082 240.774 271.957 241.363L275.871 242.191C275.918 241.968 275.994 241.759 276.102 241.556L272.57 239.678ZM271.951 241.393C271.849 241.913 271.797 242.436 271.797 242.961H275.797C275.797 242.704 275.822 242.439 275.877 242.162L271.951 241.393ZM271.797 242.961C271.797 243.491 271.849 244.02 271.95 244.546L275.878 243.79C275.823 243.504 275.797 243.228 275.797 242.961H271.797ZM271.957 244.582C272.082 245.169 272.285 245.731 272.562 246.264L276.11 244.416C275.997 244.199 275.918 243.98 275.871 243.754L271.957 244.582ZM272.57 246.279C272.872 246.846 273.263 247.353 273.724 247.802L276.518 244.94C276.323 244.749 276.191 244.568 276.102 244.401L272.57 246.279ZM273.724 247.802C274.224 248.29 274.809 248.685 275.445 249.004L277.234 245.426C276.902 245.26 276.674 245.092 276.518 244.94L273.724 247.802ZM275.469 249.015C276.131 249.335 276.865 249.568 277.648 249.734L278.477 245.821C277.932 245.705 277.518 245.563 277.211 245.415L275.469 249.015ZM277.67 249.739C278.495 249.903 279.4 249.977 280.371 249.977V245.977C279.592 245.977 278.959 245.917 278.455 245.816L277.67 249.739ZM280.371 249.977C281.808 249.977 283.127 249.816 284.258 249.418L282.93 245.645C282.373 245.841 281.544 245.977 280.371 245.977V249.977ZM284.258 249.418C285.295 249.053 286.24 248.534 286.989 247.797L284.183 244.945C283.964 245.162 283.58 245.416 282.93 245.645L284.258 249.418ZM286.977 247.808C287.684 247.124 288.215 246.309 288.513 245.368L284.698 244.163C284.621 244.409 284.473 244.665 284.195 244.934L286.977 247.808ZM288.508 245.383C288.764 244.593 288.898 243.783 288.898 242.961H284.898C284.898 243.342 284.837 243.736 284.703 244.148L288.508 245.383ZM310.594 251H308.594V253H310.594V251ZM310.441 240.348L308.483 240.752L308.484 240.758L310.441 240.348ZM309.867 239.094L308.288 240.322L308.304 240.341L308.319 240.36L309.867 239.094ZM308.707 238.285L307.969 240.144L307.987 240.151L308.005 240.158L308.707 238.285ZM304.922 238.238L305.39 240.183L305.399 240.181L305.407 240.179L304.922 238.238ZM301.148 239.797L300.119 238.082L300.109 238.088L301.148 239.797ZM299.602 240.898L298.311 239.371L297.602 239.97V240.898H299.602ZM299.602 251V253H301.602V251H299.602ZM295.254 251H293.254V253H295.254V251ZM295.254 234.898V232.898H293.254V234.898H295.254ZM299.602 234.898H301.602V232.898H299.602V234.898ZM299.602 237.102H297.602V240.548L300.594 238.838L299.602 237.102ZM301.348 236.176L302.233 237.969L302.242 237.965L302.251 237.96L301.348 236.176ZM310.91 234.887L310.315 236.796L310.325 236.799L310.335 236.802L310.91 234.887ZM313.09 236L311.826 237.55L311.832 237.555L311.838 237.56L313.09 236ZM314.449 237.746L312.628 238.574L312.634 238.586L312.64 238.599L314.449 237.746ZM314.93 251V253H316.93V251H314.93ZM312.594 251V241.977H308.594V251H312.594ZM312.594 241.977C312.594 241.265 312.534 240.582 312.399 239.937L308.484 240.758C308.552 241.082 308.594 241.485 308.594 241.977H312.594ZM312.4 239.943C312.242 239.177 311.926 238.452 311.415 237.827L308.319 240.36C308.37 240.423 308.438 240.534 308.483 240.752L312.4 239.943ZM311.446 237.866C310.904 237.169 310.186 236.704 309.409 236.412L308.005 240.158C308.228 240.242 308.284 240.315 308.288 240.322L311.446 237.866ZM309.445 236.426C308.634 236.104 307.722 235.992 306.797 235.992V239.992C307.435 239.992 307.796 240.075 307.969 240.144L309.445 236.426ZM306.797 235.992C306.019 235.992 305.23 236.1 304.437 236.298L305.407 240.179C305.926 240.049 306.387 239.992 306.797 239.992V235.992ZM304.453 236.294C303.699 236.476 302.956 236.72 302.222 237.024L303.754 240.719C304.302 240.491 304.847 240.313 305.39 240.183L304.453 236.294ZM302.222 237.024C301.492 237.326 300.791 237.679 300.119 238.082L302.177 241.512C302.678 241.212 303.203 240.947 303.754 240.719L302.222 237.024ZM300.109 238.088C299.455 238.486 298.853 238.913 298.311 239.371L300.892 242.426C301.256 242.119 301.686 241.811 302.188 241.506L300.109 238.088ZM297.602 240.898V251H301.602V240.898H297.602ZM299.602 249H295.254V253H299.602V249ZM297.254 251V234.898H293.254V251H297.254ZM295.254 236.898H299.602V232.898H295.254V236.898ZM297.602 234.898V237.102H301.602V234.898H297.602ZM300.594 238.838C301.103 238.547 301.649 238.258 302.233 237.969L300.462 234.382C299.812 234.703 299.194 235.031 298.609 235.365L300.594 238.838ZM302.251 237.96C302.79 237.687 303.37 237.438 303.993 237.214L302.64 233.45C301.872 233.726 301.14 234.039 300.444 234.391L302.251 237.96ZM303.993 237.214C304.589 237 305.231 236.822 305.923 236.684L305.139 232.761C304.269 232.936 303.435 233.164 302.64 233.45L303.993 237.214ZM305.923 236.684C306.565 236.556 307.257 236.488 308.004 236.488V232.488C307.016 232.488 306.06 232.577 305.139 232.761L305.923 236.684ZM308.004 236.488C308.93 236.488 309.692 236.602 310.315 236.796L311.506 232.977C310.425 232.64 309.25 232.488 308.004 232.488V236.488ZM310.335 236.802C310.986 236.997 311.467 237.257 311.826 237.55L314.354 234.45C313.525 233.774 312.553 233.292 311.485 232.971L310.335 236.802ZM311.838 237.56C312.189 237.842 312.447 238.174 312.628 238.574L316.27 236.918C315.827 235.943 315.178 235.111 314.342 234.44L311.838 237.56ZM312.64 238.599C312.82 238.981 312.93 239.446 312.93 240.031H316.93C316.93 238.929 316.719 237.871 316.258 236.893L312.64 238.599ZM312.93 240.031V251H316.93V240.031H312.93ZM314.93 249H310.594V253H314.93V249ZM318.586 251H316.586V253H318.586V251ZM318.586 246.781V244.781H316.586V246.781H318.586ZM323.027 246.781H325.027V244.781H323.027V246.781ZM323.027 251V253H325.027V251H323.027ZM320.586 251V246.781H316.586V251H320.586ZM318.586 248.781H323.027V244.781H318.586V248.781ZM321.027 246.781V251H325.027V246.781H321.027ZM323.027 249H318.586V253H323.027V249ZM325.43 251H323.43V253H325.43V251ZM325.43 246.781V244.781H323.43V246.781H325.43ZM329.871 246.781H331.871V244.781H329.871V246.781ZM329.871 251V253H331.871V251H329.871ZM327.43 251V246.781H323.43V251H327.43ZM325.43 248.781H329.871V244.781H325.43V248.781ZM327.871 246.781V251H331.871V246.781H327.871ZM329.871 249H325.43V253H329.871V249ZM332.273 251H330.273V253H332.273V251ZM332.273 246.781V244.781H330.273V246.781H332.273ZM336.715 246.781H338.715V244.781H336.715V246.781ZM336.715 251V253H338.715V251H336.715ZM334.273 251V246.781H330.273V251H334.273ZM332.273 248.781H336.715V244.781H332.273V248.781ZM334.715 246.781V251H338.715V246.781H334.715ZM336.715 249H332.273V253H336.715V249Z" fill="#40513B" mask="url(#path-2-outside-1_177_66)"/>
</g>
<defs>
<filter id="filter0_f_177_66" x="0" y="0" width="414" height="514" filterUnits="userSpaceOnUse" color-interpolation-filters="sRGB">
<feFlood flood-opacity="0" result="BackgroundImageFix"/>
<feBlend mode="normal" in="SourceGraphic" in2="BackgroundImageFix" result="shape"/>
<feGaussianBlur stdDeviation="3.5" result="effect1_foregroundBlur_177_66"/>
</filter>
<filter id="filter1_f_177_66" x="73.5195" y="230.488" width="267.195" height="24.9453" filterUnits="userSpaceOnUse" color-interpolation-filters="sRGB">
<feFlood flood-opacity="0" result="BackgroundImageFix"/>
<feBlend mode="normal" in="SourceGraphic" in2="BackgroundImageFix" result="shape"/>
<feGaussianBlur stdDeviation="2" result="effect1_foregroundBlur_177_66"/>
</filter>
</defs>
</svg>
